<svg xmlns="http://www.w3.org/2000/svg" width="413" height="447" fill="none"><g filter="url(#a)"><rect width="239" height="239" x="95.999" y="22.001" fill="#434343" rx="24"/><rect width="238.034" height="238.034" x="96.482" y="22.484" stroke="url(#b)" stroke-width=".966" rx="23.517"/></g><g clip-path="url(#c)" filter="url(#d)"><path fill="#191829" d="M327.23 260.848a11.757 11.757 0 0 0-.425 2.023c0 .213 0 .506.237.512.238.007.269-.199.319-.374l.524-2.03"/><path fill="#455A64" d="M347.122 125.939c-2.698 14.439-21.934 119.458-21.934 119.458l10.936 1.973 22.801-119.164a6.014 6.014 0 0 0-6.819-7.101 6.006 6.006 0 0 0-4.984 4.834z"/><path fill="#455A64" d="m350.793 122.541 1.793-7.707a2.874 2.874 0 0 1 3.353-2.167 2.877 2.877 0 0 1 2.271 2.343c.063.382.05.772-.041 1.148l-1.793 7.445-5.583-1.062z"/><path fill="#191829" d="M356.757 139.21c-.057.225-2.592-.231-5.659-1.024-3.066-.793-5.514-1.618-5.452-1.874.063-.256 2.592.231 5.659 1.024 3.066.794 5.514 1.649 5.452 1.874z"/><path fill="#191829" d="M340.677 148.627c-.113 0 0-2.068.393-5.378.393-3.309 1.099-7.856 2.167-12.827.518-2.454 1.062-4.959 2.498-6.82a7.852 7.852 0 0 1 5.134-3.016 7.42 7.42 0 0 1 3.978.537c.874.387 1.249.749 1.249.787 0 .037-.481-.2-1.349-.481a7.945 7.945 0 0 0-3.747-.256 7.42 7.42 0 0 0-4.603 2.891c-1.249 1.699-1.773 4.066-2.292 6.533a253.958 253.958 0 0 0-2.398 12.74c-.525 3.279-.912 5.302-1.03 5.29z"/><path fill="#455A64" d="M325.188 245.397s0 15.557 2.224 15.988c2.542.481 8.712-14.014 8.712-14.014l-10.936-1.974z"/><path fill="#191829" d="M335.599 247.643a31.334 31.334 0 0 0-5.084-1.773 32.13 32.13 0 0 0-5.358-.55 5.608 5.608 0 0 1 1.586-.162c1.291-.02 2.58.112 3.841.393 1.26.274 2.483.694 3.647 1.249.493.215.954.499 1.368.843z"/><path fill="#191829" d="M181.18 49.231v216.283h155.924l-4.84-211.524-151.084-4.76z"/><path fill="#E0E0E0" d="m186.239 47.905-5.059 1.324 9.293 216.283 151.664-2.823 2.829-4.49-98.998-206.135-59.729-4.159z"/><path fill="#191829" d="m181.18 49.231-.73 214.921 156.641.818-4.827-210.98-151.084-4.76z"/><path fill="#E0E0E0" d="m187.126 47.862-5.946 1.368 9.293 216.283 151.664-2.823 2.829-4.491-98.998-206.134-58.842-4.203z"/><path fill="#FAFAFA" d="M347.097 257.631H197.731L187.126 47.862h147.343l12.628 209.769z"/><path fill="#191829" d="M347.096 257.631c-.081-1.311-5.227-85.871-12.777-209.756l.15.137H187.126l.163-.175c0 .3.031.625.05.937 3.94 78.196 7.581 150.509 10.523 208.833l-.131-.125 149.365.131-149.365.131h-.125v-.125c-2.96-58.305-6.626-130.637-10.586-208.826l-.05-.937v-.137h147.649v.137c7.369 123.898 12.396 208.452 12.477 209.775z"/><path fill="#191829" d="M242.452 96.604a.432.432 0 0 1-.3-.106.326.326 0 0 1-.112-.244v-.088c0-.043.016-.085.044-.118l1.723-4.09a2.48 2.48 0 0 1 .125-.3c.051-.103.092-.21.125-.319.244-.624.494-1.205.75-1.805.256-.6.493-1.18.724-1.73l.518-1.249c.175-.4.331-.774.469-1.13.111-.298.243-.588.393-.868l-.624-.119c-.531-.1-1.049-.175-1.549-.237-.46-.06-.923-.091-1.386-.094a3.38 3.38 0 0 0-1.387.25.792.792 0 0 0-.568.756.824.824 0 0 0 .137.474.441.441 0 0 0 .4.206.332.332 0 0 1 .256.1.394.394 0 0 1-.044.556.48.48 0 0 1-.337.125.93.93 0 0 1-.462-.125 1.351 1.351 0 0 1-.381-.331 1.597 1.597 0 0 1-.369-1.005 1.46 1.46 0 0 1 .244-.844c.163-.232.376-.424.624-.562a3.3 3.3 0 0 1 .906-.318c.327-.069.659-.105.993-.106.418.001.835.033 1.249.093l1.318.194c.78.125 1.455.225 2.029.3.532.072 1.069.11 1.605.112.384.005.767-.028 1.143-.1.324-.067.637-.178.931-.33l.112-.038a.363.363 0 0 1 .406.1.51.51 0 0 1 .081.268.64.64 0 0 1-.031.194.21.21 0 0 1-.094.131c-.388.22-.81.374-1.249.456-.43.082-.867.124-1.305.125-.626 0-1.252-.042-1.873-.125a7.656 7.656 0 0 0-.556 1.149c-.219.537-.537 1.305-.943 2.305-.156.343-.3.68-.431 1.024a23.81 23.81 0 0 1-.437 1.049l-.862 2.098-1.724 4.085a.382.382 0 0 1-.281.23zm5.69.057a1.406 1.406 0 0 1-.706-.162 1.355 1.355 0 0 1-.487-.43 2.094 2.094 0 0 1-.275-.594 2.487 2.487 0 0 1-.093-.681 4.42 4.42 0 0 1 .168-1.143c.118-.434.286-.853.5-1.249.232-.433.51-.84.83-1.211a5.439 5.439 0 0 1 1.156-1.006l.15-.075a.376.376 0 0 1 .112-.031.42.42 0 0 1 .294.125.37.37 0 0 1 .118.269.446.446 0 0 1-.181.35c-.37.241-.702.536-.987.873-.281.323-.53.672-.743 1.043-.194.342-.35.704-.462 1.08a3.71 3.71 0 0 0-.15.987c-.006.258.057.512.181.737a.622.622 0 0 0 .575.331c.346-.009.68-.127.955-.337.295-.203.574-.426.837-.668a2.377 2.377 0 0 1-.662-1.83 4.3 4.3 0 0 1 .125-.924c.083-.357.206-.703.369-1.03.156-.313.367-.594.624-.831a1.2 1.2 0 0 1 .843-.337.83.83 0 0 1 .531.162c.136.111.245.252.319.412.078.166.13.343.156.525.025.167.04.336.043.506a4.187 4.187 0 0 1-.318 1.623 8.95 8.95 0 0 1-.75 1.418h.057a1.83 1.83 0 0 0 1.018-.381 7.74 7.74 0 0 0 1.249-1.205.404.404 0 0 1 .306-.125.321.321 0 0 1 .287.137.497.497 0 0 1 .081.275.34.34 0 0 1-.022.145.343.343 0 0 1-.078.123c-.419.455-.877.873-1.367 1.25a2.42 2.42 0 0 1-1.512.555c-.2.003-.4-.025-.593-.08a6.441 6.441 0 0 1-1.155.973 2.409 2.409 0 0 1-1.343.431zm3.085-5.957a.628.628 0 0 0-.462.256 2.486 2.486 0 0 0-.369.624 3.89 3.89 0 0 0-.237.762c-.05.225-.078.456-.081.687.003.2.026.398.069.593.032.234.137.453.299.625.283-.415.523-.856.719-1.318.195-.432.299-.9.306-1.374v-.505a.637.637 0 0 0-.075-.226.144.144 0 0 0-.169-.125zm7.931 6.352a1.33 1.33 0 0 1-.955-.337 1.113 1.113 0 0 1-.362-.855 1.026 1.026 0 0 1 .362-.812 1.21 1.21 0 0 1 .83-.319c.237.004.473.04.7.106.243.069.512.156.799.269l.125.062c.388-.624.714-1.285.974-1.973.325-.812.625-1.649.981-2.498l.144-.412c.231-.625.468-1.25.718-1.874.25-.624.499-1.25.762-1.78.235-.514.507-1.01.812-1.486a4.72 4.72 0 0 1 .849-1.05.41.41 0 0 1 .1-.074.373.373 0 0 1 .15-.032.326.326 0 0 1 .306.138.505.505 0 0 1 .081.275.392.392 0 0 1-.125.287 4.41 4.41 0 0 0-.724.968c-.244.412-.481.88-.725 1.405a35.834 35.834 0 0 0-.718 1.699 58.757 58.757 0 0 0-.687 1.805 78.944 78.944 0 0 1-1.055 2.704c-.303.746-.658 1.47-1.062 2.167.408.145.825.262 1.249.35.46.096.929.144 1.399.143a5.437 5.437 0 0 0 1.873-.306 6.137 6.137 0 0 0 1.587-.843 7.079 7.079 0 0 0 1.249-1.249 8.38 8.38 0 0 0 1.517-3.166c.135-.548.204-1.11.206-1.674a5.153 5.153 0 0 0-.381-2.048 4.3 4.3 0 0 0-1.036-1.5 4.55 4.55 0 0 0-1.549-.924 5.753 5.753 0 0 0-1.942-.318 8.802 8.802 0 0 0-1.331.112 5.628 5.628 0 0 0-1.324.363 3.856 3.856 0 0 0-.986.624 1.87 1.87 0 0 0-.625.937.831.831 0 0 0-.056.225v.268c.049.035.089.08.119.131.038.05.06.112.062.175a.374.374 0 0 1-.131.3.452.452 0 0 1-.3.112.439.439 0 0 1-.431-.256 1.382 1.382 0 0 1-.125-.587 2.352 2.352 0 0 1 .625-1.605 4.25 4.25 0 0 1 1.636-1.111 6.64 6.64 0 0 1 1.355-.356 9.292 9.292 0 0 1 1.437-.113 6.374 6.374 0 0 1 2.304.4 5.477 5.477 0 0 1 1.817 1.13 5.156 5.156 0 0 1 1.2 1.755 5.87 5.87 0 0 1 .43 2.286 8.458 8.458 0 0 1-.518 2.873 8.66 8.66 0 0 1-1.48 2.592 7.7 7.7 0 0 1-2.286 1.873 5.993 5.993 0 0 1-2.922.718 7.785 7.785 0 0 1-1.73-.18c-.48-.114-.953-.252-1.418-.413a2.897 2.897 0 0 1-.987.737c-.25.102-.517.157-.787.162zm-.125-1.517a.425.425 0 0 0-.378.21.322.322 0 0 0-.034.14.314.314 0 0 0 .188.287.709.709 0 0 0 .349.1.979.979 0 0 0 .531-.144 2.37 2.37 0 0 0 .431-.306l-.624-.206a1.64 1.64 0 0 0-.463-.063v-.018zm13.626 1.122a1.433 1.433 0 0 1-.712-.162 1.286 1.286 0 0 1-.48-.431 1.926 1.926 0 0 1-.282-.593 2.525 2.525 0 0 1-.093-.681c.006-.387.063-.771.168-1.143.118-.434.286-.853.5-1.249.234-.433.515-.84.837-1.212.333-.388.72-.726 1.149-1.005l.156-.075a.304.304 0 0 1 .113-.031.409.409 0 0 1 .287.125.381.381 0 0 1 .125.268.436.436 0 0 1-.188.35 4.69 4.69 0 0 0-.986.874c-.282.321-.529.67-.737 1.043a4.79 4.79 0 0 0-.462 1.08c-.1.32-.152.653-.157.987-.003.257.06.51.182.737a.62.62 0 0 0 .58.331c.346-.011.68-.129.956-.337a7.5 7.5 0 0 0 .83-.668 2.396 2.396 0 0 1-.655-1.83c.005-.312.045-.622.118-.924.082-.358.208-.704.375-1.03.156-.313.368-.595.625-.831.228-.215.529-.335.843-.338a.862.862 0 0 1 .537.163c.136.111.245.252.318.412.076.166.127.343.15.525.029.167.044.336.044.505a4.17 4.17 0 0 1-.319 1.624 9.024 9.024 0 0 1-.749 1.418h.062c.37-.024.724-.156 1.018-.381.461-.353.88-.758 1.249-1.206a.422.422 0 0 1 .306-.124.315.315 0 0 1 .288.137.509.509 0 0 1 .087.275.361.361 0 0 1-.106.268c-.419.455-.877.873-1.368 1.25-.425.353-.958.55-1.511.555a2.034 2.034 0 0 1-.625-.081c-.343.37-.728.696-1.149.974-.389.27-.85.42-1.324.431zm3.079-5.958a.624.624 0 0 0-.462.256c-.152.19-.277.4-.368.625-.106.245-.185.5-.238.762a3.45 3.45 0 0 0-.081.687c.006.2.029.397.069.593.032.234.137.453.3.624.282-.414.522-.855.718-1.317.197-.432.303-.9.312-1.374v-.225c0-.094 0-.187-.031-.281a.739.739 0 0 0-.069-.225.157.157 0 0 0-.15-.125zm2.962 5.104a.565.565 0 0 1-.352.536.556.556 0 0 1-.223.038.534.534 0 0 1-.393-.162.559.559 0 0 1-.163-.412.58.58 0 0 1 .163-.4.518.518 0 0 1 .393-.175.543.543 0 0 1 .412.175.58.58 0 0 1 .163.4zm2.054-4.996a.524.524 0 0 1-.162.387.565.565 0 0 1-.806 0 .531.531 0 0 1-.162-.387.566.566 0 0 1 .342-.535.535.535 0 0 1 .214-.04.558.558 0 0 1 .536.352c.028.07.041.146.038.223zm-64.519 24.418a.384.384 0 0 1-.381-.381.342.342 0 0 1 .028-.141.342.342 0 0 1 .084-.115.412.412 0 0 1 .269-.107h5.333a.318.318 0 0 1 .273.09.318.318 0 0 1 .09.273.39.39 0 0 1-.222.352.342.342 0 0 1-.141.029h-5.333zm-1.568 21.581a.368.368 0 0 1-.268-.118.354.354 0 0 1-.083-.12.353.353 0 0 1-.001-.286.344.344 0 0 1 .084-.119.402.402 0 0 1 .268-.1h5.334a.334.334 0 0 1 .147.012.326.326 0 0 1 .203.203.334.334 0 0 1 .012.147.38.38 0 0 1-.106.263.322.322 0 0 1-.256.118h-5.334zm1.133 21.691a.359.359 0 0 1-.148-.029.365.365 0 0 1-.121-.089.364.364 0 0 1-.087-.409.344.344 0 0 1 .087-.116.384.384 0 0 1 .269-.106h5.327a.319.319 0 0 1 .362.362.373.373 0 0 1-.1.269.335.335 0 0 1-.262.118H215.8zm3.096 20.884a.365.365 0 0 1-.269-.112.366.366 0 0 1-.112-.269.337.337 0 0 1 .112-.256.36.36 0 0 1 .269-.106h5.327a.315.315 0 0 1 .272.09.326.326 0 0 1 .078.125.334.334 0 0 1 .012.147.393.393 0 0 1-.1.269.344.344 0 0 1-.262.112h-5.327zm1.36 19.329a.385.385 0 0 1-.352-.235.379.379 0 0 1 0-.286.39.39 0 0 1 .207-.196.38.38 0 0 1 .145-.026h5.334a.32.32 0 0 1 .362.363.394.394 0 0 1-.222.352.337.337 0 0 1-.14.028h-5.334zm11.905 4.09a.522.522 0 0 1-.325.498.535.535 0 0 1-.403-.001.493.493 0 0 1-.165-.116.506.506 0 0 1-.156-.381c0-.141.056-.276.156-.375a.477.477 0 0 1 .362-.162.515.515 0 0 1 .381.162.549.549 0 0 1 .15.375zm2.903 0a.522.522 0 0 1-.325.498.535.535 0 0 1-.403-.001.504.504 0 0 1-.165-.116.519.519 0 0 1-.119-.174.524.524 0 0 1-.037-.207c0-.141.056-.276.156-.375a.477.477 0 0 1 .362-.162.511.511 0 0 1 .381.162.549.549 0 0 1 .15.375zm2.905 0a.522.522 0 0 1-.325.498.534.534 0 0 1-.403-.001.514.514 0 0 1-.165-.116.516.516 0 0 1-.156-.381c0-.141.057-.276.156-.375a.487.487 0 0 1 .363-.162.507.507 0 0 1 .38.162c.096.101.15.235.15.375zm-23.996-123.86c.075 0 .069 1.374.475 3.541.103.59.237 1.173.4 1.749.149.625.38 1.249.624 1.974a25.189 25.189 0 0 0 4.759 8.118c.493.531.949 1.056 1.424 1.493.474.437.912.85 1.336 1.205 1.693 1.405 2.898 2.073 2.861 2.136a5.287 5.287 0 0 1-.85-.462 9.875 9.875 0 0 1-.949-.625 14.42 14.42 0 0 1-1.205-.893c-.481-.37-.942-.767-1.381-1.186-.487-.438-.955-.956-1.461-1.493a24.043 24.043 0 0 1-4.815-8.2c-.219-.7-.45-1.361-.587-2.005-.137-.643-.275-1.249-.369-1.78-.093-.53-.137-1.049-.187-1.486a8.898 8.898 0 0 1-.069-1.13 6.096 6.096 0 0 1-.006-.956z"/><path fill="#191829" d="M219.063 93.728a11.405 11.405 0 0 0 2.274-2.048 8.86 8.86 0 0 0 1.555-2.892 8.325 8.325 0 0 0 .312-3.978v-.143l.218.118a7.416 7.416 0 0 0-3.047 2.498 7.221 7.221 0 0 0-1.249 2.98 9.6 9.6 0 0 0 .037 2.997 2.603 2.603 0 0 1-.225-.787 6.814 6.814 0 0 1-.037-2.248 7.099 7.099 0 0 1 1.211-3.123 7.459 7.459 0 0 1 3.167-2.604l.193-.081.032.2v.15a8.438 8.438 0 0 1-.344 4.127 8.816 8.816 0 0 1-1.667 2.948 7.915 7.915 0 0 1-1.712 1.512 5.092 5.092 0 0 1-.537.306c-.106.05-.174.08-.181.068zm-3.515-7.203a.924.924 0 0 1-.238.081 5.07 5.07 0 0 1-.711.169 8.998 8.998 0 0 1-2.686.075 10.126 10.126 0 0 1-5.727-2.586c-.308-.285-.6-.587-.874-.905a1.845 1.845 0 0 1-.35-.587.785.785 0 0 1 .113-.762c.172-.188.403-.312.655-.35.219-.04.441-.053.662-.037.418.006.835.037 1.249.093a10.84 10.84 0 0 1 2.286.625 10.731 10.731 0 0 1 3.366 2.142 9.073 9.073 0 0 1 1.674 2.098c.127.2.239.409.337.625a.993.993 0 0 1 .094.237c-.031 0-.187-.3-.537-.818a10.134 10.134 0 0 0-1.724-1.999 10.917 10.917 0 0 0-3.322-2.03 10.18 10.18 0 0 0-2.224-.58c-.402-.052-.806-.08-1.211-.088a1.349 1.349 0 0 0-1.056.269c-.218.25 0 .625.231.937.264.31.545.604.844.88.57.52 1.199.973 1.873 1.35a10.505 10.505 0 0 0 3.679 1.248c.876.116 1.764.116 2.641 0 .317-.046.636-.075.956-.087zm92.429-9.165c.025.321.025.645 0 .967-.002.376-.025.751-.069 1.124-.05.437-.081.943-.187 1.487-.107.543-.2 1.149-.369 1.78-.168.63-.368 1.305-.587 2.004a24.158 24.158 0 0 1-4.815 8.206c-.506.537-.974 1.056-1.468 1.487-.435.421-.893.817-1.373 1.186-.386.319-.789.617-1.206.893a10.01 10.01 0 0 1-.949.625 5.459 5.459 0 0 1-.849.456c-.038-.063 1.167-.73 2.86-2.136.418-.356.88-.743 1.336-1.205a58.35 58.35 0 0 0 1.424-1.493 25.172 25.172 0 0 0 4.759-8.119c.225-.687.456-1.342.625-1.967.168-.624.299-1.218.399-1.755.419-2.167.412-3.54.469-3.54z"/><path fill="#191829" d="M302.905 92.128s-.075 0-.2-.081a4.211 4.211 0 0 1-.537-.306 7.726 7.726 0 0 1-1.711-1.512 8.748 8.748 0 0 1-1.668-2.948 8.45 8.45 0 0 1-.343-4.128v-.143l.031-.206.194.087a7.395 7.395 0 0 1 3.166 2.598c.646.93 1.062 2 1.212 3.123a6.815 6.815 0 0 1-.038 2.248c-.034.274-.11.542-.225.793a9.64 9.64 0 0 0 .038-3.004 7.279 7.279 0 0 0-1.249-2.979 7.413 7.413 0 0 0-3.048-2.498l.219-.118v.143a8.325 8.325 0 0 0 .312 3.978 8.873 8.873 0 0 0 1.555 2.898 11.465 11.465 0 0 0 2.292 2.055zm3.535-7.201c.325.024.648.066.968.125a9.854 9.854 0 0 0 2.642 0 10.487 10.487 0 0 0 3.679-1.25 10.128 10.128 0 0 0 1.873-1.355c.298-.276.58-.57.843-.88.25-.294.45-.687.231-.937a1.34 1.34 0 0 0-1.055-.268c-.407.007-.814.036-1.218.087-.76.114-1.505.308-2.223.58a10.946 10.946 0 0 0-3.316 2.03 10.278 10.278 0 0 0-1.724 1.999c-.35.518-.506.83-.537.818a.972.972 0 0 1 .094-.237c.095-.217.208-.426.337-.625a9.067 9.067 0 0 1 1.673-2.098 10.629 10.629 0 0 1 3.367-2.136 10.5 10.5 0 0 1 2.285-.624c.415-.056.832-.09 1.249-.1a2.67 2.67 0 0 1 .662.043c.252.036.484.157.656.344a.785.785 0 0 1 .113.762 1.693 1.693 0 0 1-.356.587c-.27.322-.56.626-.869.912a10.12 10.12 0 0 1-5.726 2.585 8.949 8.949 0 0 1-3.398-.243c-.168-.082-.256-.107-.25-.12z"/><path fill="#FF725E" d="M343.992 227.305c0 .088-33.243.519-74.248.968-41.006.45-74.255.737-74.255.625 0-.112 33.236-.525 74.255-.968 41.018-.443 74.248-.718 74.248-.625z"/><path fill="#191829" d="M335.899 68.814c0 .087-33.049.162-73.805.162-40.756 0-73.818-.075-73.818-.162 0-.087 33.043-.162 73.818-.162s73.805.068 73.805.162z"/><path fill="#FF725E" d="M249.303 243.616a61.612 61.612 0 0 1 3.797-8.156 61.494 61.494 0 0 1-3.797 8.156zm21.945 6.296a64.72 64.72 0 0 1-7.113-5.584c1.28.801 2.503 1.69 3.66 2.661a31.056 31.056 0 0 1 3.453 2.923zm12.996-15.499a47.19 47.19 0 0 1-3.591 4.172 47.991 47.991 0 0 1-3.841 3.984 45.49 45.49 0 0 1 3.585-4.172 47.44 47.44 0 0 1 3.847-3.984zm16.664 14.449a21.437 21.437 0 0 1-2.561-2.742 21.877 21.877 0 0 1-2.317-2.953 21.428 21.428 0 0 1 2.561 2.741 21.95 21.95 0 0 1 2.317 2.954zm16.53-12.309a33.85 33.85 0 0 1-4.559 1.043 33.38 33.38 0 0 1-4.621.718 66.318 66.318 0 0 1 9.18-1.761zm10.592 9.543c.038-.492.141-.977.306-1.442a29.357 29.357 0 0 1 2.748-6.514 6.07 6.07 0 0 1 .818-1.249 7.329 7.329 0 0 1-.624 1.33c-.406.806-.943 1.93-1.48 3.192a46.53 46.53 0 0 0-1.249 3.285c-.13.481-.303.949-.519 1.398zm-89.663 6.709a18.725 18.725 0 0 1-3.235-1.087 18.177 18.177 0 0 1-3.122-1.386c1.11.254 2.194.616 3.235 1.08a17.73 17.73 0 0 1 3.122 1.393z"/><path fill="#191829" d="M209.97 59.585h.138l.418-.037.675-.056.911-.15c.344-.056.712-.181 1.125-.287.412-.107.83-.294 1.286-.469a12.803 12.803 0 0 0 2.835-1.748 12.056 12.056 0 0 0 2.592-3.086 11.625 11.625 0 0 0 1.031-9.405 11.58 11.58 0 0 0-7.495-7.494 11.633 11.633 0 0 0-9.411 1.03 12.03 12.03 0 0 0-3.085 2.592 13.037 13.037 0 0 0-1.755 2.835c-.169.456-.356.881-.469 1.287-.112.406-.224.78-.281 1.124l-.149.912c0 .256-.038.48-.057.674l-.037.419a.452.452 0 0 1 0 .137.452.452 0 0 1 0-.137V46.62c0-.27.081-.581.125-.925.043-.343.168-.724.262-1.143.094-.418.281-.843.45-1.317a12.814 12.814 0 0 1 1.742-2.91 12.042 12.042 0 0 1 3.123-2.674 11.671 11.671 0 0 1 4.453-1.549 11.863 11.863 0 0 1 5.189.444 11.858 11.858 0 0 1 7.688 7.688c.53 1.675.682 3.448.443 5.19a11.684 11.684 0 0 1-1.548 4.452A12.066 12.066 0 0 1 217.496 57a12.843 12.843 0 0 1-2.911 1.742c-.474.169-.905.344-1.317.45-.377.105-.758.19-1.143.256l-.924.131-.65.006h-.581z"/><path fill="#191829" d="M212.914 59.28a2.422 2.422 0 0 1-1.186 2.408 2.417 2.417 0 1 1 1.186-2.408zm30.113.304a.353.353 0 0 1 .144 0l.412-.037.681-.056.912-.15c.343-.056.712-.181 1.118-.287.406-.107.83-.294 1.292-.469a13.109 13.109 0 0 0 2.836-1.748 12.017 12.017 0 0 0 2.585-3.086 11.464 11.464 0 0 0 1.487-4.371 11.58 11.58 0 0 0-3.288-9.708 11.57 11.57 0 0 0-4.656-2.839 11.637 11.637 0 0 0-9.412 1.03 11.907 11.907 0 0 0-3.079 2.592 12.856 12.856 0 0 0-1.754 2.836c-.169.456-.356.88-.469 1.286-.112.406-.231.78-.281 1.124-.05.344-.112.625-.156.912-.044.288-.038.481-.056.675l-.031.418a.527.527 0 0 1 0 .137v-1.242c0-.269.074-.581.124-.925.05-.343.163-.724.256-1.143.094-.418.288-.843.45-1.317a13.283 13.283 0 0 1 1.743-2.91 12.053 12.053 0 0 1 3.122-2.673 11.683 11.683 0 0 1 4.453-1.55 11.904 11.904 0 0 1 5.196.444 11.86 11.86 0 0 1 7.681 7.688 11.869 11.869 0 0 1-1.099 9.643 12.06 12.06 0 0 1-2.679 3.122 12.697 12.697 0 0 1-2.91 1.743c-.468.168-.899.343-1.318.45-.376.104-.758.19-1.143.255l-.912.156h-1.249z"/><path fill="#191829" d="M244.97 59.71a2.422 2.422 0 0 1-1.186 2.407 2.418 2.418 0 0 1-2.807-3.906 2.42 2.42 0 0 1 3.689.604c.159.275.262.58.304.894zm30.718-.125a.35.35 0 0 1 .144 0l.418-.037.675-.056.912-.15c.343-.057.712-.181 1.118-.288.406-.106.83-.293 1.292-.468a12.937 12.937 0 0 0 2.836-1.749 12.166 12.166 0 0 0 2.591-3.085 11.62 11.62 0 0 0 1.031-9.405 11.57 11.57 0 0 0-7.494-7.494 11.652 11.652 0 0 0-9.412 1.03 11.902 11.902 0 0 0-3.041 2.592 12.822 12.822 0 0 0-1.755 2.835c-.169.456-.356.88-.469 1.287-.112.406-.231.78-.281 1.124-.05.343-.106.624-.156.912-.05.287-.037.48-.05.674l-.037.419a.452.452 0 0 1 0 .137.527.527 0 0 1 0-.137V46.62c0-.27.081-.582.125-.925.043-.344.162-.725.256-1.143.094-.418.287-.843.449-1.318a13.163 13.163 0 0 1 1.749-2.91 12.022 12.022 0 0 1 3.123-2.673 11.743 11.743 0 0 1 4.459-1.549 11.868 11.868 0 0 1 5.19.444 11.873 11.873 0 0 1 7.687 7.688c.531 1.675.682 3.448.444 5.19a11.67 11.67 0 0 1-1.549 4.452A12.173 12.173 0 0 1 283.27 57a12.98 12.98 0 0 1-2.91 1.742c-.475.169-.906.344-1.324.45-.374.105-.754.19-1.137.256l-.924.13h-1.249l-.038.007z"/><path fill="#191829" d="M278.088 59.71a2.422 2.422 0 0 1-1.186 2.407 2.418 2.418 0 0 1-2.807-3.906 2.42 2.42 0 0 1 3.689.604c.159.275.262.58.304.894zm30.838-.125h.137l.418-.037.675-.056.912-.15c.349-.057.712-.181 1.124-.288.412-.106.83-.293 1.293-.468a13.13 13.13 0 0 0 2.835-1.749 12.019 12.019 0 0 0 2.585-3.085 11.62 11.62 0 0 0 1.031-9.405 11.58 11.58 0 0 0-7.494-7.494 11.639 11.639 0 0 0-9.412 1.03 12.063 12.063 0 0 0-3.085 2.592 12.803 12.803 0 0 0-1.749 2.835c-.174.456-.356.88-.468 1.287-.112.406-.231.78-.281 1.124-.05.343-.112.624-.156.912-.044.287-.038.48-.056.674l-.038.419v.137a1.05 1.05 0 0 1 0-.137V46.62c0-.27.081-.582.131-.925.066-.385.152-.767.256-1.143.107-.412.281-.843.45-1.318a12.853 12.853 0 0 1 1.742-2.91 12.072 12.072 0 0 1 3.123-2.673 11.683 11.683 0 0 1 4.453-1.549 11.868 11.868 0 0 1 5.19.444 11.866 11.866 0 0 1 7.687 7.688 11.871 11.871 0 0 1-1.105 9.642A12.064 12.064 0 0 1 316.451 57a12.714 12.714 0 0 1-2.91 1.742c-.475.169-.906.344-1.318.45-.376.105-.758.19-1.143.256l-.924.13h-1.243l.013.007z"/><path fill="#191829" d="M311.324 59.28a2.413 2.413 0 0 1-2.552 2.728 2.42 2.42 0 0 1-2.131-1.632 2.418 2.418 0 0 1 4.38-1.99c.159.275.262.579.303.894z"/><path fill="#FF725E" d="M306.348 116.718c0 .094-17.837.169-39.838.169-22.002 0-39.844-.075-39.844-.169 0-.094 17.836-.162 39.844-.162 22.008 0 39.838.075 39.838.162zm.623 23.899c0 .093-17.836.168-39.837.168-22.002 0-39.845-.075-39.845-.168 0-.094 17.837-.163 39.845-.163 22.007 0 39.837.075 39.837.163zm0 19.57c0 .093-17.836.168-39.837.168-22.002 0-39.845-.075-39.845-.168 0-.094 17.837-.163 39.845-.163 22.007 0 39.837.075 39.837.163zm0 21.65c0 .094-17.836.169-39.837.169-22.002 0-39.845-.075-39.845-.169 0-.093 17.837-.162 39.845-.162 22.007 0 39.837.075 39.837.162z"/><path fill="#000" d="M231.446 119.645c.075-.187.145-.392.21-.617a9.63 9.63 0 0 0 .196-.7c.066-.243.117-.477.155-.701.037-.234.056-.453.056-.659v-.126a3.934 3.934 0 0 1-.449-.084 1.288 1.288 0 0 1-.364-.154 1.086 1.086 0 0 1-.267-.281.906.906 0 0 1-.098-.434c0-.187.028-.336.084-.448.056-.122.197-.183.421-.183.159 0 .308.038.448.112.15.066.29.145.421.239l.07-.126.757-2.874a3.117 3.117 0 0 1 .028-.728 1.36 1.36 0 0 1 .294-.645h-.084a.63.63 0 0 0-.098-.014c-.15 0-.299.023-.449.07a2.41 2.41 0 0 0-.434.154c-.131.056-.266.112-.407.168-.14.047-.28.084-.42.112a.44.44 0 0 1-.112-.028.196.196 0 0 1-.098-.07c-.028.01-.075.024-.14.042a1.336 1.336 0 0 1-.211.042c-.074.01-.144.024-.21.042a.506.506 0 0 0-.126.029h-.07c-.187 0-.28-.094-.28-.281 0-.093.06-.168.182-.224.121-.056.266-.107.434-.154.168-.056.337-.103.505-.14.168-.047.294-.098.378-.155a4.618 4.618 0 0 1 1.023-.252c.15-.018.295-.028.435-.028a8.68 8.68 0 0 1 .518-.014c.374 0 .748.047 1.122.14.383.084.724.225 1.023.421.308.196.556.453.743.771.196.317.294.696.294 1.135 0 .411-.098.785-.294 1.121a3.603 3.603 0 0 1-.715.883 5.782 5.782 0 0 1-.925.701c-.327.196-.636.364-.925.504-.281.131-.519.239-.715.323-.187.074-.28.116-.28.126v.028c0 .009.004.014.014.014.196.364.397.691.602.981.215.28.449.523.701.729.262.196.556.35.883.462.327.103.706.154 1.135.154.14 0 .281-.018.421-.056.14-.037.275-.074.406-.112.14-.046.276-.089.407-.126a1.48 1.48 0 0 1 .406-.056c.056 0 .117.019.182.056.075.028.112.08.112.154 0 .15-.107.276-.322.379a3.423 3.423 0 0 1-.701.252 5.858 5.858 0 0 1-.771.14 5.842 5.842 0 0 1-.49.042 3.938 3.938 0 0 1-1.878-.462c-.57-.309-1.028-.767-1.374-1.374h-.07l-.084.519a3.761 3.761 0 0 1-.154.686 2.331 2.331 0 0 1-.266.603c-.103.168-.229.252-.379.252a.93.93 0 0 1-.294-.042c-.075-.028-.112-.107-.112-.238zm1.71-3.756h.07c.019-.009.051-.023.098-.042.056-.019.084-.033.084-.042.308-.14.626-.294.953-.463.327-.177.626-.383.897-.616.271-.234.491-.495.659-.785.177-.299.266-.645.266-1.037 0-.253-.07-.481-.21-.687a1.724 1.724 0 0 0-.519-.519 2.29 2.29 0 0 0-.672-.336 2.144 2.144 0 0 0-.701-.126h-.182c.093.075.14.154.14.238.009.084.014.178.014.28 0 .029-.005.075-.014.141v.084l-.883 3.56v.35zm5.939 1.906c.019-.056.047-.154.085-.294.046-.15.088-.309.126-.477.046-.168.084-.327.112-.476.037-.159.065-.267.084-.323.056-.224.121-.467.196-.728a3.23 3.23 0 0 1 .336-.729c.141-.224.318-.407.533-.547.224-.149.5-.224.827-.224.121 0 .206.047.252.14.056.084.103.178.14.28v.211c.01.093.014.158.014.196 0 .402-.042.757-.126 1.065a2.774 2.774 0 0 1-.364.855 3.947 3.947 0 0 1-.589.743c-.233.224-.5.462-.799.715a5.095 5.095 0 0 0-.042.14.627.627 0 0 0-.028.14v.028c0 .168.028.304.084.406a.731.731 0 0 0 .225.253c.102.056.215.093.336.112.131.009.271.014.42.014.44 0 .86-.061 1.262-.183a3.235 3.235 0 0 0 1.107-.588c.047-.047.103-.112.168-.196l.224-.281c.075-.093.155-.173.239-.238a.395.395 0 0 1 .266-.112c.093 0 .149.037.168.112a.91.91 0 0 1 .028.224c0 .206-.065.402-.196.589a2.02 2.02 0 0 1-.491.49 3.608 3.608 0 0 1-.686.379 6.326 6.326 0 0 1-.757.28 5.658 5.658 0 0 1-.729.168 3.508 3.508 0 0 1-.575.056c-.495 0-.911-.079-1.247-.238-.327-.168-.551-.5-.673-.995l.07-.967zm2.005-2.761a3.936 3.936 0 0 0-.449.463c-.103.13-.187.271-.252.42-.056.14-.108.294-.154.463-.038.168-.08.364-.126.588.177-.14.322-.28.434-.42a2.07 2.07 0 0 0 .463-.911c.037-.178.065-.379.084-.603zm3.445 4.527v-.434a3.434 3.434 0 0 1-.071-1.654 4.104 4.104 0 0 1 .631-1.458 3.957 3.957 0 0 1 1.163-1.093 3.713 3.713 0 0 1 1.556-.547h.252c.206 0 .374.047.505.14a.86.86 0 0 1 .322.337c.084.14.14.299.168.476.038.178.057.355.057.533 0 .243-.028.481-.085.715a9.62 9.62 0 0 1-.168.686l-.168.701c-.047.224-.07.463-.07.715v.084a.716.716 0 0 1 .028.168.995.995 0 0 0 .042.154c.019 0 .066.005.14.014h.407a.992.992 0 0 0 .28-.07l2.663-1.233h.042a.25.25 0 0 1 .056-.014c.093 0 .168.028.224.084a.279.279 0 0 1 .098.224.674.674 0 0 1-.014.141c0 .037-.023.074-.07.112a2.775 2.775 0 0 1-.364.196c-.168.084-.351.177-.547.28l-.56.294c-.169.094-.29.155-.365.183a3.817 3.817 0 0 1-.434.21c-.159.056-.323.112-.491.168a4.985 4.985 0 0 1-.504.14 2.526 2.526 0 0 1-.435.042c-.205 0-.374-.032-.504-.098a.783.783 0 0 1-.295-.28 1.409 1.409 0 0 1-.14-.421 2.49 2.49 0 0 1 0-.518l-.602.476a6.53 6.53 0 0 1-.673.463c-.234.14-.472.262-.715.364-.243.103-.49.154-.743.154a.73.73 0 0 1-.378-.098.599.599 0 0 1-.238-.336zm.756-.294c.215 0 .454-.061.715-.183a5.1 5.1 0 0 0 .771-.476c.252-.187.481-.383.687-.589.205-.215.364-.406.476-.574a3.72 3.72 0 0 1 .112-.799c.075-.262.113-.528.113-.799a.398.398 0 0 0-.014-.084v-.084c-.122-.103-.225-.164-.309-.182a1.588 1.588 0 0 0-.336-.028h-.126a.276.276 0 0 0-.112.014c-.057.046-.15.135-.281.266a14.9 14.9 0 0 0-.42.406c-.14.15-.276.29-.407.421-.121.131-.205.219-.252.266-.009 0-.028.019-.056.056a1.274 1.274 0 0 0-.098.112l-.084.14a.716.716 0 0 0-.042.098l-.337 1.64v.379zm10.369-1.402a5.853 5.853 0 0 1-.266.238l-.421.365-.406.35a4.915 4.915 0 0 1-.281.21 5.86 5.86 0 0 0-.168.099 3.99 3.99 0 0 0-.294.182 11.048 11.048 0 0 1-.617.336 4.102 4.102 0 0 0-.238.126.591.591 0 0 1-.21.028.98.98 0 0 1-.477-.14.477.477 0 0 1-.238-.42v-1.514l.196-1.023c.103-.393.22-.71.351-.953.13-.252.294-.458.49-.617a1.95 1.95 0 0 1 .701-.378c.28-.084.607-.164.981-.239.019-.009.079-.032.182-.07.103-.037.164-.06.182-.07h.197c.149 0 .28.033.392.098.121.066.238.15.35.253l.701-3a1.526 1.526 0 0 1 0-.42c.019-.187.051-.374.098-.561a1.89 1.89 0 0 1 .21-.476c.085-.131.183-.196.295-.196.14 0 .247.051.322.154.084.103.112.233.084.392l-.757 4.583a6.656 6.656 0 0 0-.378 1.206 6.773 6.773 0 0 0-.112 1.247c0 .196.014.392.042.589.028.196.079.373.154.532.084.159.196.29.336.393.141.093.323.14.547.14.495 0 .986-.089 1.472-.267a4.431 4.431 0 0 0 1.289-.756h.042c.009-.01.023-.014.042-.014.075 0 .14.023.196.07v.084c.01.037.014.065.014.084 0 .149-.06.289-.182.42a1.98 1.98 0 0 1-.476.365c-.187.112-.397.21-.631.294a8.228 8.228 0 0 1-.687.224 4.455 4.455 0 0 1-1.093.182c-.327 0-.603-.051-.827-.154a1.63 1.63 0 0 1-.547-.462 2.255 2.255 0 0 1-.322-.673 5.513 5.513 0 0 1-.168-.841h-.07zm-2.733-.546c0 .056-.009.149-.028.28a8.713 8.713 0 0 1-.042.434c-.01.15-.024.295-.042.435-.01.131-.019.229-.028.294 0 .019-.005.066-.014.14v.14c.131 0 .299-.051.504-.154.206-.112.421-.252.645-.42.224-.178.453-.374.687-.589.233-.224.439-.444.616-.659.187-.214.341-.425.463-.63.121-.215.182-.397.182-.547 0-.047-.037-.112-.112-.196a1.41 1.41 0 0 0-.238-.238 1.8 1.8 0 0 0-.267-.197.417.417 0 0 0-.224-.084c-.196-.065-.425-.046-.687.056a2.18 2.18 0 0 0-.714.449 2.409 2.409 0 0 0-.547.687c-.14.261-.191.528-.154.799zm14.038 2.382.476-2.803v-.392l.28-1.864c.028-.038.08-.056.155-.056.074-.01.126-.014.154-.014.074 0 .159.028.252.084.103.046.154.112.154.196v.953c.038-.028.103-.084.196-.168l.295-.267c.112-.093.215-.182.308-.266.093-.084.154-.145.182-.182.103-.093.224-.173.365-.238.149-.066.289-.098.42-.098.271 0 .481.084.631.252a.9.9 0 0 1 .238.645.06.06 0 0 1-.014.042v.084l-.533 2.396v1.136c.29 0 .589-.057.897-.169a5.46 5.46 0 0 0 .911-.448c.29-.178.561-.379.813-.603.253-.233.472-.458.659-.673h.056c.065 0 .117.024.154.071.047.037.07.088.07.154 0 .205-.07.411-.21.616a2.64 2.64 0 0 1-.518.561 4.542 4.542 0 0 1-.729.505 6.695 6.695 0 0 1-1.584.672 2.607 2.607 0 0 1-.645.098c-.177 0-.317-.032-.42-.098a.676.676 0 0 1-.238-.252 1.5 1.5 0 0 1-.099-.364 6.139 6.139 0 0 1-.014-.421v-.182l.547-2.719v-.463c-.224 0-.448.099-.673.295a3.44 3.44 0 0 0-.588.715c-.168.28-.318.565-.449.855a7.55 7.55 0 0 0-.266.714 20.124 20.124 0 0 0-.196.883c-.028.187-.056.365-.084.533a9.386 9.386 0 0 0-.056.364c.009.056-.01.098-.057.126a.47.47 0 0 1-.14.07c-.056.01-.116.014-.182.014h-.14a.793.793 0 0 1-.252-.042c-.084-.028-.126-.098-.126-.21v-.042zm6.738-1.906c.019-.056.047-.154.084-.294.047-.15.089-.309.126-.477.047-.168.084-.327.112-.476.038-.159.066-.267.085-.323.056-.224.121-.467.196-.728a3.23 3.23 0 0 1 .336-.729c.14-.224.318-.407.533-.547.224-.149.5-.224.827-.224.121 0 .205.047.252.14.056.084.103.178.14.28v.211c.009.093.014.158.014.196 0 .402-.042.757-.126 1.065a2.798 2.798 0 0 1-.364.855 3.988 3.988 0 0 1-.589.743c-.234.224-.5.462-.799.715a5.095 5.095 0 0 0-.042.14.573.573 0 0 0-.028.14v.028c0 .168.028.304.084.406a.738.738 0 0 0 .224.253c.103.056.215.093.337.112.13.009.271.014.42.014.439 0 .86-.061 1.261-.183a3.249 3.249 0 0 0 1.108-.588c.046-.047.102-.112.168-.196l.224-.281c.075-.093.154-.173.238-.238a.395.395 0 0 1 .267-.112c.093 0 .149.037.168.112a.91.91 0 0 1 .028.224c0 .206-.066.402-.196.589a2.037 2.037 0 0 1-.491.49 3.587 3.587 0 0 1-.687.379 6.25 6.25 0 0 1-.756.28 5.735 5.735 0 0 1-.729.168 3.518 3.518 0 0 1-.575.056c-.495 0-.911-.079-1.247-.238-.327-.168-.552-.5-.673-.995l.07-.967zm2.004-2.761a3.918 3.918 0 0 0-.448.463c-.103.13-.187.271-.252.42a4.25 4.25 0 0 0-.155.463l-.126.588c.178-.14.323-.28.435-.42a2.022 2.022 0 0 0 .462-.911c.038-.178.066-.379.084-.603zm3.333 4.149c0-.327.037-.645.112-.953.075-.309.178-.612.309-.911.084-.318.177-.612.28-.883a5.98 5.98 0 0 1 .308-.715c.112-.206.224-.365.337-.477.112-.121.228-.182.35-.182.121 0 .21.037.266.112.066.066.098.159.098.281v.084l-.686 1.639c-.01.019-.033.056-.07.113-.038.046-.057.079-.057.098v.056l-.084.224c-.028.103-.06.215-.098.336-.037.112-.074.22-.112.323a9.244 9.244 0 0 0-.056.21.837.837 0 0 0-.042.224 3.25 3.25 0 0 0-.014.196c0 .019.005.056.014.112a.19.19 0 0 0 .042.099 5.667 5.667 0 0 0 1.135-.631c.411-.29.804-.612 1.178-.967.373-.355.705-.724.995-1.107.299-.393.518-.771.658-1.136.019-.009.066-.023.141-.042a.901.901 0 0 1 .14-.028h.07c.093 0 .173.042.238.126a.385.385 0 0 1 .112.253.25.25 0 0 1-.014.056v.056c-.168.402-.313.785-.434 1.149a3.684 3.684 0 0 0-.183 1.177c0 .178.005.323.014.435.019.103.061.252.127.448.009.047.028.07.056.07h.098c.28 0 .56-.107.841-.322a3.8 3.8 0 0 0 .757-.785c.233-.317.42-.649.56-.995.14-.346.21-.649.21-.911 0-.14-.014-.271-.042-.392a2.885 2.885 0 0 1-.028-.393.55.55 0 0 1 .098-.322.321.321 0 0 1 .281-.14.39.39 0 0 1 .238.084c.075.047.145.103.21.168.075.065.15.126.224.182a.8.8 0 0 0 .253.126h.813a.914.914 0 0 0 .182-.014c.047-.018.103-.042.168-.07a5.84 5.84 0 0 1 .266-.14c.122-.056.281-.131.477-.224.009-.009.028-.014.056-.014h.056c.084 0 .159.028.224.084a.279.279 0 0 1 .098.224.372.372 0 0 1-.084.252.743.743 0 0 1-.182.155 3.956 3.956 0 0 1-.252.112 3.382 3.382 0 0 1-.239.07 7.428 7.428 0 0 1-.504.182 7.611 7.611 0 0 0-.266.07 1.949 1.949 0 0 0-.141.028h-.168c-.065 0-.159.005-.28.014-.112 0-.276.01-.491.028a.235.235 0 0 0-.084.028.556.556 0 0 0-.056.042 4.433 4.433 0 0 1-.392 1.29 4.897 4.897 0 0 1-.771 1.191 4.008 4.008 0 0 1-1.107.869 2.66 2.66 0 0 1-1.29.336.395.395 0 0 1-.266-.112 2.108 2.108 0 0 1-.21-.28 2.262 2.262 0 0 1-.14-.308 1.746 1.746 0 0 1-.07-.253 2.838 2.838 0 0 1-.042-.21 6.688 6.688 0 0 0-.042-.336 3.054 3.054 0 0 0-.042-.323 2.477 2.477 0 0 1-.014-.224c-.169.178-.388.392-.659.645-.271.243-.565.481-.883.715-.318.224-.64.42-.967.588-.318.159-.608.238-.869.238-.243 0-.416-.084-.519-.252a1.11 1.11 0 0 1-.14-.546zm11.392-1.178a.68.68 0 0 1-.239.07h-.252c-.084 0-.168.005-.252.014a.621.621 0 0 0-.252.056c-.159.019-.262.01-.309-.028-.046-.046-.06-.107-.042-.182a.63.63 0 0 1 .154-.252c.085-.093.183-.173.295-.238a1.06 1.06 0 0 1 .336-.14.62.62 0 0 1 .35.014c-.046-.169-.042-.313.014-.435.057-.121.169-.182.337-.182.084 0 .159.009.224.028a.213.213 0 0 1 .168.112c.14-.084.327-.224.561-.42.233-.206.472-.412.715-.617.252-.215.481-.402.686-.561.206-.168.346-.252.421-.252.028 0 .065.005.112.014.047 0 .093.009.14.028a.323.323 0 0 1 .126.07c.038.019.056.052.056.098v.603c-.065.262-.13.509-.196.743-.056.224-.107.448-.154.672a7.749 7.749 0 0 0-.112 1.374c.149 0 .327-.033.532-.098.215-.066.43-.145.645-.238.215-.094.416-.187.603-.281.187-.103.336-.187.448-.252a.87.87 0 0 0 .126-.098c.066-.056.136-.112.211-.168.074-.066.144-.122.21-.168.075-.057.121-.094.14-.113a.476.476 0 0 1 .14-.07.71.71 0 0 0 .126-.07c.038-.009.07.005.098.042.038.028.07.066.099.112.028.038.046.08.056.127.018.037.028.06.028.07a.45.45 0 0 1-.113.28 1.76 1.76 0 0 1-.266.266c-.103.075-.21.15-.322.224a1.437 1.437 0 0 0-.238.183 13.53 13.53 0 0 1-.393.182c-.177.084-.369.173-.574.266l-.589.266c-.178.085-.304.145-.379.183a.956.956 0 0 1-.126.042.998.998 0 0 0-.21.056 2.139 2.139 0 0 1-.224.07.496.496 0 0 0-.126.028.38.38 0 0 0-.196.14c-.038.065-.08.131-.127.196a.503.503 0 0 1-.154.168c-.056.047-.149.061-.28.042a.582.582 0 0 0-.126-.056.619.619 0 0 1-.126-.084 6.9 6.9 0 0 1-.575-.448 8.883 8.883 0 0 1-.434-.407 5.999 5.999 0 0 1-.379-.448 19.94 19.94 0 0 0-.392-.533zm.883-.56c.065.14.126.275.182.406.065.131.14.257.224.379.084.112.178.21.28.294a.832.832 0 0 0 .407.154l.07-.505c.028-.196.061-.401.098-.616.037-.215.079-.425.126-.631.056-.215.117-.402.182-.56h-.14a7.895 7.895 0 0 0-.42.308l-.365.28a3.536 3.536 0 0 0-.294.224.81.81 0 0 1-.042.042c-.019.019-.033.028-.042.028a.413.413 0 0 1-.126.099.855.855 0 0 0-.14.098zm1.569-1.29c-.028 0-.042.024-.042.07 0 .038.014.056.042.056.038 0 .056-.018.056-.056 0-.046-.018-.07-.056-.07zm-62.502 19.351a3.973 3.973 0 0 1 .042-1.584c.131-.56.337-1.116.617-1.668a8.845 8.845 0 0 1 1.037-1.583c.411-.514.851-.977 1.318-1.388a8.488 8.488 0 0 1 1.485-1.037 5.735 5.735 0 0 1 1.528-.575c.149 0 .28.047.392.141.122.093.225.21.309.35.084.14.145.29.182.449.047.158.07.303.07.434v1.359c0 .094-.037.155-.112.183a.86.86 0 0 1-.196.028c-.066 0-.145-.01-.239-.028-.093-.019-.14-.08-.14-.183a1.68 1.68 0 0 0-.014-.182l-.028-.28a14.95 14.95 0 0 0-.028-.294v-.183c0-.018-.004-.079-.014-.182 0-.112-.009-.224-.028-.336a1.522 1.522 0 0 0-.084-.308c-.037-.094-.084-.141-.14-.141h-.491l-.126.07a8.549 8.549 0 0 0-.294.141 5.537 5.537 0 0 0-.336.182 1.312 1.312 0 0 0-.253.154 8.124 8.124 0 0 0-.14.098 2.798 2.798 0 0 1-.182.14 3.742 3.742 0 0 0-.182.14c-.056.047-.098.08-.126.099-.505.485-.944.939-1.318 1.359a7.061 7.061 0 0 0-.939 1.289 5.845 5.845 0 0 0-.574 1.458c-.122.514-.183 1.126-.183 1.836 0 .28.014.593.042.939.038.336.089.682.155 1.037.074.355.177.706.308 1.051.131.337.294.636.49.897.197.262.435.472.715.631.28.159.612.238.995.238h.309c.42-.14.789-.266 1.107-.378.327-.122.616-.243.869-.365.261-.121.495-.252.701-.392.214-.15.42-.327.616-.533.206-.205.416-.453.631-.742.215-.29.458-.631.729-1.024h.042a.125.125 0 0 1 .056-.014c.168 0 .252.085.252.253 0 .215-.056.458-.168.729-.103.261-.299.551-.589.868-.28.318-.677.654-1.191 1.01-.505.345-1.154.696-1.948 1.051l-.393.168a2.438 2.438 0 0 1-.322.084 1.77 1.77 0 0 1-.322.028c-.103.009-.22.014-.351.014-.486 0-.911-.084-1.275-.252a3.03 3.03 0 0 1-.925-.673 4.215 4.215 0 0 1-.659-.981 7.042 7.042 0 0 1-.406-1.177 10.059 10.059 0 0 1-.225-1.248c-.037-.42-.056-.813-.056-1.177zm11.63 2.341a1.146 1.146 0 0 0-.098-.155c-.037-.074-.084-.112-.14-.112-.178 0-.36.08-.547.239-.177.149-.35.331-.518.546a5.367 5.367 0 0 0-.421.631 2.345 2.345 0 0 0-.21.504 1.507 1.507 0 0 0-.056.435c0 .168-.014.327-.042.476a.73.73 0 0 1-.154.379c-.075.103-.21.154-.407.154-.121 0-.205-.023-.252-.07a.495.495 0 0 1-.056-.266c.066-.449.122-.818.168-1.108.056-.289.103-.542.14-.756.047-.225.089-.44.127-.645a30.8 30.8 0 0 0 .336-1.864c.065-.439.145-.995.238-1.668a9.876 9.876 0 0 1 .126-1.416c.056-.299.126-.598.211-.897.084-.308.186-.583.308-.826.131-.243.28-.44.448-.589a.832.832 0 0 1 .589-.238c.159 0 .285.056.378.168a.913.913 0 0 1 .225.378c.056.15.088.309.098.477.009.159.014.289.014.392 0 .234-.019.458-.056.673a8.914 8.914 0 0 1-.14.631c-.056.205-.117.415-.183.63a7.851 7.851 0 0 0-.168.617l-.897 1.71-.504 1.093.07.154c.196-.233.397-.411.602-.532.206-.131.463-.206.771-.225a.434.434 0 0 1 .351.127c.102.093.187.214.252.364.065.14.112.285.14.434.037.15.061.271.07.365 0 .056-.005.145-.014.266-.009.122-.019.262-.028.421l-.028.504c0 .168.009.327.028.477.019.149.056.28.112.392.066.103.15.164.253.182.364-.046.686-.107.967-.182a2.82 2.82 0 0 0 .756-.336c.215-.15.393-.337.533-.561.149-.224.262-.5.336-.827a.324.324 0 0 1 .281-.14c.14 0 .229.051.266.154a.8.8 0 0 1 .07.337c0 .373-.121.705-.364.995-.234.28-.533.514-.897.7a5.37 5.37 0 0 1-1.178.435c-.42.093-.808.14-1.163.14-.224 0-.378-.075-.462-.224a1.45 1.45 0 0 1-.155-.561 8.39 8.39 0 0 1 0-.673c.01-.224.01-.406 0-.546a4.701 4.701 0 0 0-.056-.575 3.766 3.766 0 0 0-.042-.35 1.8 1.8 0 0 1-.028-.238zm-1.149-3.364v.322a.988.988 0 0 1 .014.154v.085l.07.07a.726.726 0 0 0 .252-.295c.084-.14.159-.308.225-.504.065-.196.121-.402.168-.617a9.053 9.053 0 0 0 .224-1.247 2.92 2.92 0 0 0 .042-.435c0-.037-.005-.107-.014-.21a.635.635 0 0 0-.014-.182l-.07-.14a1.862 1.862 0 0 0-.519.63c-.121.243-.21.496-.266.757a4.587 4.587 0 0 0-.098.813c-.009.28-.014.547-.014.799zm5.407 4.331c.019-.056.047-.155.084-.295.047-.149.089-.308.126-.476a5.56 5.56 0 0 0 .112-.477c.038-.159.066-.266.085-.322.056-.224.121-.467.196-.729a3.27 3.27 0 0 1 .336-.729c.14-.224.318-.406.533-.546.224-.15.5-.225.827-.225.121 0 .205.047.252.141.056.084.103.177.14.28v.21c.009.094.014.159.014.196 0 .402-.042.757-.126 1.066a2.782 2.782 0 0 1-.364.854c-.159.262-.356.51-.589.743-.234.225-.5.463-.799.715a6.498 6.498 0 0 0-.042.14.582.582 0 0 0-.028.14v.028a.85.85 0 0 0 .084.407.726.726 0 0 0 .224.252c.103.056.215.094.337.112.13.01.271.014.42.014.439 0 .86-.06 1.261-.182a3.251 3.251 0 0 0 1.108-.589c.046-.046.102-.112.168-.196l.224-.28c.075-.094.154-.173.238-.238a.395.395 0 0 1 .267-.112c.093 0 .149.037.168.112a.899.899 0 0 1 .028.224c0 .205-.066.402-.196.589a2.037 2.037 0 0 1-.491.49c-.196.14-.425.266-.687.378a6.093 6.093 0 0 1-1.485.449 3.622 3.622 0 0 1-.575.056c-.495 0-.911-.079-1.247-.238-.327-.168-.551-.5-.673-.995l.07-.967zm2.004-2.761a3.997 3.997 0 0 0-.448.462 1.902 1.902 0 0 0-.252.421c-.057.14-.108.294-.155.462-.037.168-.079.364-.126.589a2.66 2.66 0 0 0 .435-.421 2.13 2.13 0 0 0 .294-.434c.075-.15.131-.309.168-.477.038-.177.066-.378.084-.602zm3.417 3.027c.047-.477.154-.93.323-1.36.177-.429.378-.798.602-1.107.234-.308.467-.546.701-.715.243-.168.453-.219.631-.154.046-.028.084-.051.112-.07a.85.85 0 0 0 .084-.07.217.217 0 0 1 .084-.056.345.345 0 0 1 .154-.028.54.54 0 0 1 .351.126c.102.084.191.187.266.309.084.121.145.252.182.392.047.131.07.252.07.364 0 .122-.047.206-.14.253a.723.723 0 0 1-.322.07.436.436 0 0 1-.197-.042 1.112 1.112 0 0 1-.154-.126 1.599 1.599 0 0 0-.126-.141.39.39 0 0 0-.182-.098h-.056l-.07.07a.305.305 0 0 0-.056.07c-.197.234-.379.444-.547.631-.168.178-.318.36-.448.547-.122.187-.22.387-.295.602a2.682 2.682 0 0 0-.098.771v.294c.009.057.014.113.014.169v.126c.019.093.07.163.154.21.094.047.178.093.253.14.028 0 .098.005.21.014h.196c.336 0 .734-.051 1.191-.154.458-.112.916-.257 1.374-.434a8.598 8.598 0 0 0 1.317-.631c.411-.252.738-.514.981-.785a.942.942 0 0 0 .14-.308c.047-.131.094-.257.141-.379a1.81 1.81 0 0 1 .182-.336c.065-.094.163-.14.294-.14.122 0 .196.051.224.154a.736.736 0 0 1 .056.28c0 .299-.074.57-.224.813-.14.243-.317.463-.532.659a4.007 4.007 0 0 1-.715.518c-.252.15-.495.276-.729.379-.065.018-.21.07-.434.154-.215.084-.449.173-.701.266-.252.094-.5.187-.743.281-.234.084-.406.149-.519.196a9.974 9.974 0 0 1-.378.112 7.277 7.277 0 0 0-.28.056 1.208 1.208 0 0 1-.267.028 2.934 2.934 0 0 1-.308.014c-.336 0-.617-.042-.841-.126a1.233 1.233 0 0 1-.518-.365 1.737 1.737 0 0 1-.295-.602 5.14 5.14 0 0 1-.112-.841zm7.468 1.864a.694.694 0 0 1-.014-.182v-.182c0-.299.051-.589.154-.869.112-.29.247-.566.406-.827l.757-1.976.743-2.747.616-1.22c.019-.046.052-.07.099-.07h.154c.196 0 .317.075.364.224.047.141.07.285.07.435 0 .56-.084 1.088-.252 1.584a9.32 9.32 0 0 1-.645 1.443c.168-.103.337-.187.505-.252a1.59 1.59 0 0 1 .56-.098c.243 0 .44.047.589.14.149.084.308.224.477.42a.65.65 0 0 1 .014.183v.196c0 .28-.066.546-.197.799-.13.252-.299.481-.504.686a4.49 4.49 0 0 1-.687.561 3.49 3.49 0 0 1-.757.364v.071a.41.41 0 0 0 .084.252c.056.065.122.126.197.182.074.047.154.084.238.112.084.019.163.028.238.028.206 0 .42-.009.645-.028.224-.019.444-.051.658-.098.225-.056.435-.121.631-.196.196-.084.374-.192.533-.323.074-.056.154-.144.238-.266a8.37 8.37 0 0 0 .238-.364l.224-.323c.075-.093.131-.14.169-.14.112 0 .191.052.238.154a.544.544 0 0 1 .084.281.488.488 0 0 1-.014.07v.056a3.71 3.71 0 0 1-.617.939 2.775 2.775 0 0 1-.771.589c-.289.14-.616.242-.981.308a7.685 7.685 0 0 1-1.191.084c-.374 0-.691-.065-.953-.196-.252-.14-.462-.374-.631-.701a.707.707 0 0 0-.056-.14.983.983 0 0 0-.07-.182.609.609 0 0 0-.084-.183.27.27 0 0 0-.14-.112l-.673 1.43c-.028.065-.084.107-.168.126a.856.856 0 0 1-.378.014.224.224 0 0 1-.14-.056zm1.85-2.649c0 .028.014.075.042.14a2.526 2.526 0 0 0 .21.379c.047.046.089.07.126.07.037 0 .084-.01.14-.028.056-.028.112-.052.168-.07.066-.028.122-.056.168-.085a.581.581 0 0 0 .113-.084c.028-.037.079-.098.154-.182l.238-.266c.093-.094.178-.182.252-.266a.863.863 0 0 0 .154-.183 1.07 1.07 0 0 0 .043-.098.962.962 0 0 0 .07-.14c.028-.047.051-.093.07-.14a.989.989 0 0 1 .042-.098v-.07a.158.158 0 0 0-.014-.07c0-.028-.024-.052-.07-.07h-.267a1.77 1.77 0 0 0-.322.028.665.665 0 0 0-.294.112 4.493 4.493 0 0 1-.169.154c-.084.065-.168.14-.252.224a50.7 50.7 0 0 1-.252.224 4.02 4.02 0 0 0-.154.141 4.597 4.597 0 0 0-.112.182.487.487 0 0 0-.084.196zm13.477-5.774.084-.14.336-1.556c.028-.112.075-.178.14-.196a.91.91 0 0 1 .224-.028c.187 0 .299.042.337.126.037.084.056.215.056.392 0 .038-.005.089-.014.154v.085l-1.163 4.442v.126a.31.31 0 0 0 .028.141c.028.037.088.042.182.014.252-.01.523-.019.813-.028.299-.019.607-.047.925-.084.317-.047.626-.113.925-.197a3.31 3.31 0 0 0 .799-.364c.233-.159.42-.355.56-.589.15-.243.224-.537.224-.883 0-.439-.121-.878-.364-1.317a5.074 5.074 0 0 0-.897-1.205 4.65 4.65 0 0 0-1.219-.883c-.449-.225-.888-.337-1.318-.337-.215 0-.406.047-.574.14a2.874 2.874 0 0 0-.435.281c-.131.093-.257.187-.378.28a.62.62 0 0 1-.351.126c-.186 0-.28-.093-.28-.28v-.028c.009-.01.014-.019.014-.028a1.58 1.58 0 0 1 .322-.519c.141-.149.295-.28.463-.392.178-.112.364-.192.561-.238.205-.057.406-.085.602-.085h.421c.14 0 .285.024.434.071.458.205.911.448 1.36.728a6.2 6.2 0 0 1 1.233.953c.364.355.659.767.883 1.234.224.458.336.962.336 1.513 0 .439-.088.813-.266 1.122a2.384 2.384 0 0 1-.715.756 3.54 3.54 0 0 1-1.023.477 7.792 7.792 0 0 1-1.163.252c-.402.047-.799.075-1.191.084-.383 0-.729-.004-1.038-.014l-.056.07-1.037 3.967a.442.442 0 0 1-.182.252.561.561 0 0 1-.294.084.184.184 0 0 1-.154-.07.473.473 0 0 1-.084-.154 1.078 1.078 0 0 1-.043-.182c0-.066.005-.113.014-.141l1.963-7.932zm10.915 13.889c0-.131.004-.252.014-.365l.028-.308c.018-.093.037-.201.056-.322.028-.122.065-.271.112-.449.093-.159.173-.322.238-.49a9.3 9.3 0 0 0 .182-.477l.197-.476c.074-.159.168-.318.28-.477.364-.542.766-1.051 1.205-1.527a26.65 26.65 0 0 1 1.388-1.346l.574-4.373-1.948 4.443a4.604 4.604 0 0 1-.518.841c-.112.15-.239.276-.379.379a.655.655 0 0 1-.406.154c-.112 0-.206-.056-.281-.169a1.262 1.262 0 0 1-.168-.406 3.918 3.918 0 0 1-.084-.448 7.052 7.052 0 0 1-.014-.351v-.098a.873.873 0 0 0 .014-.098c.01-.159.028-.374.056-.645.038-.271.07-.537.098-.799.028-.261.052-.49.07-.686.019-.197.033-.309.043-.337l1.443-6.349v-.308c0-.149-.009-.299-.028-.448a.9.9 0 0 0-.098-.379.57.57 0 0 0-.224-.266c-.103-.075-.253-.112-.449-.112-.159 0-.355.046-.588.14a2.35 2.35 0 0 0-.533.266c-.075.056-.187.136-.336.238-.15.103-.295.211-.435.323-.14.112-.266.215-.378.308-.112.084-.182.14-.21.168l-3.154 3.07a.456.456 0 0 1-.21.126 1.014 1.014 0 0 1-.238.028c-.113 0-.192-.024-.239-.07a.496.496 0 0 1-.056-.267c0-.084.005-.186.014-.308.01-.131.033-.252.07-.364.047-.122.103-.225.169-.309a.296.296 0 0 1 .252-.14.15.15 0 0 1 .112.042.288.288 0 0 1 .084.098.82.82 0 0 1 .07.112c.019.029.042.043.07.043h.028c.01 0 .014-.005.014-.014l3.014-2.874c.168-.158.359-.322.574-.49.215-.168.439-.313.673-.435.243-.13.49-.238.743-.322.261-.084.518-.126.771-.126.205 0 .397.056.574.168.178.103.327.238.449.407.13.158.224.341.28.546.056.196.061.397.014.603l-1.64 8.115a8.59 8.59 0 0 0-.042.392 3.544 3.544 0 0 0 0 .631c.009.112.014.247.014.406.038 0 .052.01.042.028 0 .01.024-.018.07-.084.028-.056.07-.121.126-.196.056-.084.108-.164.155-.238l.14-.211.056-.098 3.279-7.526c.047-.084.089-.126.126-.126a.906.906 0 0 1 .169-.014c.093 0 .191.023.294.07.112.037.168.117.168.238v.112l-1.163 5.396a4.467 4.467 0 0 0-.126.729 8.31 8.31 0 0 0-.028.701v.35c.149-.112.336-.233.56-.364.225-.131.472-.257.743-.379.271-.13.556-.257.855-.378.299-.121.584-.224.855-.308a8.43 8.43 0 0 1 .785-.225c.243-.056.448-.084.617-.084.056 0 .126.01.21.028.093.01.177.033.252.07a.529.529 0 0 1 .21.127.285.285 0 0 1 .084.21.53.53 0 0 1-.056.21c-.028.084-.079.117-.154.098a.502.502 0 0 1-.14-.056.429.429 0 0 0-.14-.07.917.917 0 0 0-.112.014 3.248 3.248 0 0 1-.168.028 1.018 1.018 0 0 0-.267.084 7.28 7.28 0 0 0-1.177.224 7.982 7.982 0 0 0-1.205.407 5.536 5.536 0 0 0-1.052.602 2.757 2.757 0 0 0-.756.785l-.07.197-.014.308c-.01.205-.024.444-.042.715-.01.28-.024.565-.043.855-.018.299-.028.542-.028.728v.337l-.42 2.943c-.047.28-.131.57-.252.869-.112.299-.262.57-.449.813a2.344 2.344 0 0 1-.672.616 1.57 1.57 0 0 1-1.08.239h-.21a1.309 1.309 0 0 1-.631-.407 2.614 2.614 0 0 1-.392-.686 3.729 3.729 0 0 1-.224-.785 5.004 5.004 0 0 1-.056-.715zm.742-.042c0 .121.015.289.043.504.028.215.074.421.14.617.074.206.168.383.28.533.121.149.28.224.477.224a.895.895 0 0 0 .56-.196c.168-.122.313-.276.435-.463.13-.187.238-.388.322-.602a2.32 2.32 0 0 0 .154-.589l.477-4.317v-.799c-.346.309-.696.654-1.052 1.037-.345.384-.654.79-.925 1.22-.27.439-.49.892-.658 1.359a4.398 4.398 0 0 0-.253 1.472zm8.953-7.428a74.444 74.444 0 0 0-.056-.673l-.056-1.051a105.402 105.402 0 0 0-.098-1.752v-.112c0-.066-.004-.14-.014-.224v-.491c0-.504.061-1.037.182-1.598.131-.56.337-1.069.617-1.527.28-.467.64-.851 1.079-1.15.439-.299.972-.448 1.598-.448.14 0 .28.009.42.028.141.019.281.061.421.126.112-.037.21-.065.294-.084a2.01 2.01 0 0 1 .477-.056c.084-.009.177-.014.28-.014.533 0 .972.126 1.317.378.356.243.64.561.855.953.225.383.383.813.477 1.29.093.476.14.939.14 1.387 0 .813-.131 1.579-.392 2.299a6.275 6.275 0 0 1-1.192 1.976.038.038 0 0 1-.014.028v.014l.014.028a.906.906 0 0 1 .098.14c.057.075.094.122.113.14.018.028.065.084.14.169.084.074.168.158.252.252.084.084.168.163.252.238.084.075.14.126.168.154v.042c0 .084-.032.145-.098.182a.409.409 0 0 1-.21.057.578.578 0 0 1-.238-.057 4.325 4.325 0 0 1-.435-.322l-.182-.182a2.136 2.136 0 0 1-.112-.084 13.722 13.722 0 0 0-.14-.112l-.14-.14-.14.07c-.299.243-.608.495-.925.756a9.356 9.356 0 0 1-.981.701 5.677 5.677 0 0 1-1.066.533 3.25 3.25 0 0 1-1.177.21c-.29 0-.523-.065-.701-.196a1.577 1.577 0 0 1-.434-.491 3 3 0 0 1-.238-.672 26.718 26.718 0 0 1-.155-.715zm.533-4.429c0 .168-.005.425-.014.771v1.177c.009.43.033.874.07 1.332.047.448.112.864.196 1.247.094.374.22.682.379.925.159.233.359.35.602.35.271 0 .547-.051.827-.154.281-.112.528-.238.743-.378.065-.056.182-.15.35-.281a112.406 112.406 0 0 0 1.08-.827l.364-.266.07-.07a.285.285 0 0 0 .056-.07l.014-.028-.014-.028v-.014a.132.132 0 0 0-.028-.07.638.638 0 0 1-.042-.07l-1.009-1.36a.66.66 0 0 1-.126-.224 1.33 1.33 0 0 1-.028-.266.4.4 0 0 1 .042-.182c.028-.056.079-.085.154-.085.103 0 .206.043.308.127.103.084.201.191.295.322.102.121.201.262.294.42.093.15.182.29.266.421.084.121.164.224.239.308.074.084.144.126.21.126h.042c.205-.168.378-.364.518-.588a6.22 6.22 0 0 0 .379-.701 5.88 5.88 0 0 0 .28-.771c.075-.261.136-.509.182-.743a1.998 1.998 0 0 1 .028-.574c.038-.187.056-.379.056-.575 0-.308-.037-.64-.112-.995a4.13 4.13 0 0 0-.35-1.009 2.275 2.275 0 0 0-.631-.785 1.375 1.375 0 0 0-.925-.322c-.018 0-.065.004-.14.014h-.112l.042.126a.726.726 0 0 1 .07.168 1.091 1.091 0 0 1 .098.322.675.675 0 0 1-.056.239 1.1 1.1 0 0 1-.154.266 1.138 1.138 0 0 1-.196.224.305.305 0 0 1-.197.084c-.093 0-.154-.014-.182-.042-.028-.028-.042-.075-.042-.14a.45.45 0 0 1 .112-.308.466.466 0 0 0 .112-.295.25.25 0 0 0-.098-.196.893.893 0 0 0-.224-.14 1.036 1.036 0 0 0-.252-.084.953.953 0 0 0-.196-.028.681.681 0 0 0-.421.126 1.953 1.953 0 0 1-.392.224l-.757.743c-.047.056-.117.084-.21.084-.131 0-.196-.07-.196-.21a.59.59 0 0 1 .07-.266c.046-.094.107-.183.182-.267.075-.093.149-.177.224-.252a1.95 1.95 0 0 1 .21-.168v-.084c-.42.065-.766.233-1.037.504a2.858 2.858 0 0 0-.631.967 4.763 4.763 0 0 0-.308 1.178 8.37 8.37 0 0 0-.084 1.121zm8.785 4.513a.703.703 0 0 1-.238.07h-.253c-.084 0-.168.005-.252.014a.621.621 0 0 0-.252.056c-.159.019-.262.009-.309-.028-.046-.047-.06-.107-.042-.182a.64.64 0 0 1 .154-.253c.085-.093.183-.172.295-.238.103-.065.215-.112.336-.14a.633.633 0 0 1 .351.014c-.047-.168-.043-.313.014-.434.056-.122.168-.183.336-.183.084 0 .159.01.224.028.075.01.131.047.168.113.141-.085.327-.225.561-.421.234-.205.472-.411.715-.617.252-.214.481-.401.686-.56.206-.168.346-.252.421-.252.028 0 .065.004.112.014.047 0 .093.009.14.028a.311.311 0 0 1 .126.07c.038.018.056.051.056.098v.602c-.065.262-.13.51-.196.743-.056.225-.107.449-.154.673a7.697 7.697 0 0 0-.112 1.373c.149 0 .327-.032.532-.098.215-.065.43-.144.645-.238.215-.093.416-.187.603-.28.187-.103.336-.187.448-.252.019-.01.061-.043.126-.099.066-.056.136-.112.211-.168.074-.065.145-.121.21-.168.075-.056.121-.093.14-.112a.452.452 0 0 1 .14-.07.79.79 0 0 0 .126-.07c.038-.01.07.004.098.042a.374.374 0 0 1 .099.112.313.313 0 0 1 .056.126.27.27 0 0 1 .028.07.45.45 0 0 1-.112.28 1.773 1.773 0 0 1-.267.267c-.103.075-.21.149-.322.224a1.386 1.386 0 0 0-.238.182c-.075.038-.206.098-.393.182-.177.085-.369.173-.574.267l-.589.266c-.178.084-.304.145-.378.182a.776.776 0 0 1-.127.042c-.065.01-.135.028-.21.056a1.925 1.925 0 0 1-.224.07.561.561 0 0 0-.126.028.376.376 0 0 0-.196.141c-.038.065-.08.13-.127.196a.522.522 0 0 1-.154.168c-.056.047-.149.061-.28.042a.582.582 0 0 0-.126-.056.619.619 0 0 1-.126-.084 6.688 6.688 0 0 1-.575-.449 8.885 8.885 0 0 1-.434-.406 6.018 6.018 0 0 1-.379-.449 20.02 20.02 0 0 0-.392-.532zm.883-.561c.065.14.126.276.182.407.065.13.14.257.224.378.084.112.178.21.28.294a.824.824 0 0 0 .407.155l.07-.505c.028-.196.061-.402.098-.617.037-.215.08-.425.126-.63.056-.215.117-.402.182-.561h-.14a9.188 9.188 0 0 0-.42.308l-.365.281a3.536 3.536 0 0 0-.294.224l-.042.042c-.019.019-.033.028-.042.028-.009.019-.051.051-.126.098-.075.047-.122.08-.14.098zm1.569-1.289c-.028 0-.042.023-.042.07 0 .037.014.056.042.056.038 0 .056-.019.056-.056 0-.047-.018-.07-.056-.07zm-74.634 15.347.085-.14.336-1.556c.028-.112.075-.178.14-.196a.91.91 0 0 1 .224-.028c.187 0 .299.042.337.126.037.084.056.215.056.392 0 .038-.005.089-.014.154v.085l-1.164 4.442v.126c0 .057.01.103.028.141.029.037.089.042.183.014.252-.01.523-.019.813-.028.299-.019.607-.047.925-.084.317-.047.626-.113.925-.197.299-.093.565-.215.798-.364.234-.159.421-.355.561-.589.15-.243.224-.537.224-.883 0-.439-.121-.878-.364-1.317a5.074 5.074 0 0 0-.897-1.205 4.65 4.65 0 0 0-1.219-.883c-.449-.225-.888-.337-1.318-.337-.215 0-.406.047-.574.14a2.874 2.874 0 0 0-.435.281c-.131.093-.257.187-.378.28a.623.623 0 0 1-.351.126c-.187 0-.28-.093-.28-.28v-.028c.009-.01.014-.019.014-.028a1.58 1.58 0 0 1 .322-.519c.14-.149.295-.28.463-.392.177-.112.364-.192.56-.238.206-.057.407-.085.603-.085h.421c.14 0 .285.024.434.071.458.205.911.448 1.36.728.457.271.868.589 1.233.953.364.355.659.767.883 1.234.224.458.336.962.336 1.513 0 .439-.089.813-.266 1.122a2.395 2.395 0 0 1-.715.756 3.54 3.54 0 0 1-1.023.477 7.82 7.82 0 0 1-1.163.252c-.402.047-.799.075-1.192.084-.383 0-.728-.004-1.037-.014l-.056.07-1.037 3.967a.447.447 0 0 1-.182.252.566.566 0 0 1-.294.084.187.187 0 0 1-.155-.07.514.514 0 0 1-.084-.154 1.185 1.185 0 0 1-.042-.182c0-.066.005-.113.014-.141l1.962-7.932zm5.968 5.942.014-.014a.81.81 0 0 0 .042-.042c.019-.084.056-.229.112-.434.056-.206.117-.425.183-.659l.182-.673c.065-.205.112-.345.14-.42a2.4 2.4 0 0 1 .084-.238l.182-.421.196-.448c.066-.15.112-.262.141-.337.065-.131.163-.303.294-.518.14-.215.294-.416.462-.603.178-.196.36-.364.547-.505.187-.149.36-.224.519-.224.084 0 .149.024.196.07a.34.34 0 0 1 .112.168.606.606 0 0 1 .056.197c.009.074.014.14.014.196 0 .486-.07.972-.21 1.457a6.663 6.663 0 0 1-.547 1.374 7.255 7.255 0 0 1-.841 1.247 8.866 8.866 0 0 1-1.009 1.037 2.5 2.5 0 0 0-.042.169 1.562 1.562 0 0 1-.028.182v.028c0 .187.047.336.14.448a.984.984 0 0 0 .365.253c.14.046.294.079.462.098.178.018.346.028.505.028.084 0 .205-.042.364-.126a6.91 6.91 0 0 0 .505-.281c.177-.112.35-.21.518-.294.168-.084.294-.126.379-.126.084 0 .149.028.196.084a.32.32 0 0 1 .07.21c0 .14-.108.29-.323.449a4.972 4.972 0 0 1-.742.448 9.732 9.732 0 0 1-.813.337c-.253.093-.421.14-.505.14-.28.056-.542.06-.785.014a1.817 1.817 0 0 1-.63-.267 1.911 1.911 0 0 1-.449-.462 1.532 1.532 0 0 1-.21-.575l.154-.967zm2.649-4.176c-.084 0-.182.07-.294.21a4.02 4.02 0 0 0-.309.462c-.102.178-.196.351-.28.519a1.558 1.558 0 0 0-.126.322 13.423 13.423 0 0 0-.294.799c-.056.159-.113.313-.169.463l-.098.322h.07l.084-.098c.057-.075.117-.159.183-.252l.224-.281a1.86 1.86 0 0 0 .182-.252 5.34 5.34 0 0 0 .154-.252c.066-.122.108-.196.126-.224a18.24 18.24 0 0 0 .477-1.36c.047-.131.07-.205.07-.224v-.154zm1.651 6.293v-.435a3.434 3.434 0 0 1-.07-1.654 4.073 4.073 0 0 1 .631-1.457 3.948 3.948 0 0 1 1.163-1.094 3.701 3.701 0 0 1 1.556-.546h.252c.205 0 .374.047.504.14a.854.854 0 0 1 .323.336c.084.141.14.299.168.477.037.177.056.355.056.533 0 .242-.028.481-.084.714-.047.225-.103.453-.168.687l-.168.701a3.474 3.474 0 0 0-.071.715v.084c.01.018.019.074.028.168a.879.879 0 0 0 .043.154c.018 0 .065.005.14.014h.406c.094-.009.187-.033.28-.07l2.663-1.233h.042a.203.203 0 0 1 .056-.014c.094 0 .169.028.225.084a.282.282 0 0 1 .098.224.739.739 0 0 1-.014.14c0 .037-.024.075-.07.112a2.686 2.686 0 0 1-.365.196c-.168.085-.35.178-.546.281l-.561.294c-.168.093-.29.154-.364.182a3.672 3.672 0 0 1-.435.21 23.08 23.08 0 0 1-.49.169 5.28 5.28 0 0 1-.505.14 2.524 2.524 0 0 1-.434.042c-.206 0-.374-.033-.505-.098a.767.767 0 0 1-.294-.281 1.366 1.366 0 0 1-.14-.42 2.37 2.37 0 0 1 0-.519c-.187.15-.388.309-.603.477a6.57 6.57 0 0 1-.673.462 5.602 5.602 0 0 1-.715.365 1.88 1.88 0 0 1-.742.154.743.743 0 0 1-.379-.098.607.607 0 0 1-.238-.336zm.757-.295c.215 0 .453-.061.715-.182a5.31 5.31 0 0 0 .77-.476c.253-.187.482-.384.687-.589.206-.215.365-.407.477-.575.009-.28.046-.546.112-.799a2.88 2.88 0 0 0 .112-.798.415.415 0 0 0-.014-.085v-.084c-.122-.102-.224-.163-.308-.182a1.598 1.598 0 0 0-.337-.028h-.126a.3.3 0 0 0-.112.014c-.056.047-.15.136-.28.266-.131.122-.271.257-.421.407-.14.149-.275.289-.406.42-.122.131-.206.22-.252.267-.01 0-.029.018-.057.056-.028.028-.06.065-.098.112l-.084.14a.99.99 0 0 0-.042.098l-.336 1.64v.378zm6.29 4.247c0-.607.135-1.168.406-1.682a5.783 5.783 0 0 1 1.009-1.387 8.87 8.87 0 0 1 1.388-1.108 16.807 16.807 0 0 1 1.5-.855l.406-1.303c-.047.056-.14.149-.28.28l-.421.421-.434.406a12.333 12.333 0 0 1-.701.575 5.652 5.652 0 0 1-.519.35 4.044 4.044 0 0 1-.546.266 1.534 1.534 0 0 1-.505.099c-.205 0-.341-.047-.406-.141-.056-.102-.084-.247-.084-.434 0-.15.009-.304.028-.463a1.176 1.176 0 0 0-.014-.476l.546-1.486c.084-.084.164-.215.239-.392.084-.178.163-.355.238-.533.084-.177.168-.331.252-.462.094-.131.192-.196.294-.196.113 0 .206.032.281.098a.334.334 0 0 1 .126.28.712.712 0 0 1-.042.252 2.89 2.89 0 0 1-.098.267c-.122.252-.243.49-.365.714-.112.225-.219.449-.322.673a5.606 5.606 0 0 0-.238.701 3.369 3.369 0 0 0-.084.785h.056l.084-.042c.056-.038.117-.075.182-.112a43.836 43.836 0 0 0 .42-.267 6.585 6.585 0 0 0 1.36-1.177c.392-.458.78-.93 1.163-1.416a.9.9 0 0 1 .098-.126.336.336 0 0 1 .07-.056.098.098 0 0 1 .07-.028h.127c.13 0 .233.028.308.084.084.047.135.159.154.337.009.121 0 .271-.028.448a4.868 4.868 0 0 1-.112.505c-.047.168-.098.336-.154.504a4.757 4.757 0 0 1-.126.379v.21a.82.82 0 0 1 .126-.042c.075-.019.126-.033.154-.042.056-.01.21-.061.462-.154.253-.094.524-.192.813-.295l.827-.308c.253-.093.411-.154.477-.182h.028c.065 0 .121.023.168.07a.213.213 0 0 1 .084.168.229.229 0 0 1-.07.168.59.59 0 0 1-.14.126 3.549 3.549 0 0 1-.182.084c-.066.028-.122.052-.169.07a3.36 3.36 0 0 1-.28.141c-.121.046-.261.102-.42.168-.15.056-.309.121-.477.196-.168.075-.331.145-.49.21a84.45 84.45 0 0 1-1.248.505l-1.233 4.653a2.348 2.348 0 0 1-.322.701c-.15.243-.327.467-.533.672a2.502 2.502 0 0 1-.687.491c-.243.131-.49.196-.743.196a1.09 1.09 0 0 1-.672-.21 1.563 1.563 0 0 1-.463-.519 2.093 2.093 0 0 1-.252-.672 3.065 3.065 0 0 1-.084-.687zm.757 0c0 .121.009.257.028.406.028.15.074.295.14.435.065.14.145.257.238.35a.56.56 0 0 0 .393.14.889.889 0 0 0 .56-.196c.178-.121.332-.276.463-.462.14-.178.257-.369.35-.575.093-.206.168-.388.224-.547.028-.112.07-.271.126-.476.057-.196.108-.393.155-.589.056-.196.102-.374.14-.532.037-.15.056-.239.056-.267v-.056l.406-1.766a4.092 4.092 0 0 0-1.149.617c-.383.29-.733.626-1.051 1.009a5.74 5.74 0 0 0-.785 1.233c-.196.44-.294.865-.294 1.276zm16.504-4.037v-.126a.253.253 0 0 1 .07-.112h.084a.645.645 0 0 1 .098-.014c.169 0 .327.014.477.042a3.055 3.055 0 0 0 1.373-.084c.281-.084.528-.205.743-.364.224-.168.402-.374.533-.617a1.89 1.89 0 0 0 .196-.883 1.87 1.87 0 0 0-.098-.589 2.81 2.81 0 0 0-.238-.574 3.373 3.373 0 0 0-.351-.519 2.672 2.672 0 0 0-.42-.434l-3.14-2.593a.868.868 0 0 0-.14-.14.595.595 0 0 0-.154-.14l-.014.028h-.042v5.508l-.07 1.023c0 .084-.042.149-.126.196a2.67 2.67 0 0 1-.21.084c-.113.009-.197-.009-.253-.056a.503.503 0 0 1-.112-.196.837.837 0 0 1-.042-.266v-7.344a5.294 5.294 0 0 1-.462-.883 2.715 2.715 0 0 1-.169-.967c0-.085.005-.197.014-.337.01-.14.028-.275.056-.406a.957.957 0 0 1 .169-.351.414.414 0 0 1 .336-.154c.093 0 .159.038.196.112a.44.44 0 0 1 .07.239c0 .14-.014.271-.042.392a1.739 1.739 0 0 0-.042.392c0 .085-.004.192-.014.323a.64.64 0 0 0 .084.336c.01-.112.014-.261.014-.448.01-.187.033-.369.07-.547.038-.177.098-.332.183-.462.093-.131.233-.197.42-.197.075 0 .14.019.196.056.056.028.084.084.084.169v1.429a.738.738 0 0 0-.196.421 7.446 7.446 0 0 0-.014.448v.182c0 .028.005.066.014.112a.605.605 0 0 0 .056.113c.038.046.075.102.112.168.047.056.089.112.126.168.038.047.071.084.099.112l3.153 2.579c.476.402.869.855 1.177 1.359.309.496.463 1.056.463 1.682 0 .411-.084.78-.253 1.107a2.72 2.72 0 0 1-.672.827 3.133 3.133 0 0 1-.967.519 3.41 3.41 0 0 1-1.108.182c-.074 0-.186-.005-.336-.014a3.607 3.607 0 0 1-.448-.056 1.223 1.223 0 0 1-.379-.14.327.327 0 0 1-.154-.295zm4.917-1.009c.037-.13.06-.266.07-.406l.056-.449c.028-.158.07-.336.126-.532.065-.206.163-.435.294-.687.131-.252.304-.542.519-.869.224-.336.514-.719.869-1.149a.491.491 0 0 1 .14-.14.278.278 0 0 1 .182-.07c.112 0 .21.046.294.14a.389.389 0 0 1 .127.28c0 .009-.01.042-.029.098a.374.374 0 0 1-.028.098 9.715 9.715 0 0 1-.588 1.066c-.103.149-.22.308-.351.476-.121.168-.266.36-.434.575-.112.28-.21.542-.294.784a2.477 2.477 0 0 0-.126.813c0 .15.004.271.014.365.018.093.065.219.14.378h.154c.271 0 .579-.107.925-.322a7.923 7.923 0 0 0 1.037-.785c.346-.308.659-.621.939-.939.28-.318.486-.575.617-.771a.484.484 0 0 0 .07-.126 8.32 8.32 0 0 1 .07-.14c.019-.056.051-.15.098-.28.047-.141.093-.285.14-.435.056-.149.108-.29.154-.42l.098-.295c.019-.084.056-.131.112-.14a1.08 1.08 0 0 1 .169-.014c.168 0 .275.037.322.112.047.066.07.178.07.337v.238a41.76 41.76 0 0 0-.252.701c-.066.215-.131.425-.196.63a4.828 4.828 0 0 0-.127.617c-.028.206-.042.43-.042.673 0 .028-.004.093-.014.196 0 .103.005.21.014.322.019.103.047.201.085.295.046.084.112.126.196.126.224 0 .453-.028.686-.084.243-.066.486-.145.729-.239.243-.102.472-.215.687-.336.224-.121.434-.243.631-.364a.572.572 0 0 0 .168-.127 1.93 1.93 0 0 1 .21-.182c.075-.065.15-.121.224-.168a.4.4 0 0 1 .211-.07c.186 0 .28.093.28.28 0 .14-.084.29-.252.449a3.864 3.864 0 0 1-.645.448c-.252.15-.537.29-.855.421-.318.131-.626.247-.925.35-.29.094-.551.173-.785.238a2.482 2.482 0 0 1-.504.084h-.211a2.462 2.462 0 0 0-.196-.014.564.564 0 0 1-.35-.252 1.646 1.646 0 0 1-.196-.434 3.109 3.109 0 0 1-.071-.491 8.027 8.027 0 0 1-.014-.406c-.028.018-.065.042-.112.07-.037.019-.06.042-.07.07-.075.065-.201.168-.378.308l-.561.435c-.196.149-.383.289-.56.42-.169.131-.285.224-.351.28a2.843 2.843 0 0 1-.616.351c-.225.093-.454.14-.687.14-.243 0-.435-.037-.575-.112a1.017 1.017 0 0 1-.336-.322 1.514 1.514 0 0 1-.154-.491 4.078 4.078 0 0 1-.042-.603zm9.303-.672c.019-.056.047-.155.084-.295.047-.149.089-.308.126-.476a5.56 5.56 0 0 0 .112-.477c.038-.159.066-.266.084-.322.056-.224.122-.467.197-.729a3.27 3.27 0 0 1 .336-.729c.14-.224.318-.406.533-.546.224-.15.499-.225.826-.225.122 0 .206.047.253.141.056.084.102.177.14.28v.21c.009.094.014.159.014.196 0 .402-.042.757-.126 1.066a2.76 2.76 0 0 1-.365.854 3.95 3.95 0 0 1-.588.743c-.234.225-.5.463-.799.715-.01.028-.024.075-.042.14a.582.582 0 0 0-.028.14v.028a.85.85 0 0 0 .084.407.726.726 0 0 0 .224.252c.103.056.215.094.336.112.131.01.271.014.421.014.439 0 .86-.06 1.261-.182a3.238 3.238 0 0 0 1.107-.589c.047-.046.103-.112.169-.196l.224-.28c.075-.094.154-.173.238-.238a.395.395 0 0 1 .266-.112c.094 0 .15.037.169.112a.948.948 0 0 1 .028.224c0 .205-.066.402-.197.589a2.032 2.032 0 0 1-.49.49c-.196.14-.425.266-.687.378a6.048 6.048 0 0 1-1.485.449 3.632 3.632 0 0 1-.575.056c-.495 0-.911-.079-1.247-.238-.327-.168-.552-.5-.673-.995l.07-.967zm2.004-2.761a3.997 3.997 0 0 0-.448.462 1.945 1.945 0 0 0-.253.421c-.056.14-.107.294-.154.462-.037.168-.079.364-.126.589.178-.14.322-.281.435-.421a2.13 2.13 0 0 0 .294-.434c.075-.15.131-.309.168-.477.037-.177.065-.378.084-.602zm3.445 2.41.014-.014a.81.81 0 0 0 .042-.042c.019-.084.056-.229.112-.434l.182-.659.183-.673c.065-.205.112-.345.14-.42a2.4 2.4 0 0 1 .084-.238l.182-.421.196-.448c.066-.15.112-.262.14-.337.066-.131.164-.303.295-.518.14-.215.294-.416.462-.603.178-.196.36-.364.547-.505.187-.149.36-.224.518-.224a.27.27 0 0 1 .197.07.34.34 0 0 1 .112.168.632.632 0 0 1 .056.197c.009.074.014.14.014.196 0 .486-.07.972-.21 1.457a6.663 6.663 0 0 1-.547 1.374 7.313 7.313 0 0 1-.841 1.247 8.866 8.866 0 0 1-1.009 1.037 2.5 2.5 0 0 0-.042.169 1.562 1.562 0 0 1-.028.182v.028c0 .187.047.336.14.448a.989.989 0 0 0 .364.253c.141.046.295.079.463.098.178.018.346.028.505.028.084 0 .205-.042.364-.126a6.69 6.69 0 0 0 .504-.281c.178-.112.351-.21.519-.294.168-.084.294-.126.378-.126.085 0 .15.028.197.084a.32.32 0 0 1 .07.21c0 .14-.108.29-.323.449a5.024 5.024 0 0 1-.742.448 9.732 9.732 0 0 1-.813.337c-.253.093-.421.14-.505.14-.28.056-.542.06-.785.014a1.817 1.817 0 0 1-.63-.267 1.911 1.911 0 0 1-.449-.462 1.532 1.532 0 0 1-.21-.575l.154-.967zm2.649-4.176c-.084 0-.182.07-.294.21a4.02 4.02 0 0 0-.309.462c-.102.178-.196.351-.28.519a1.558 1.558 0 0 0-.126.322 13.423 13.423 0 0 0-.294.799c-.057.159-.113.313-.169.463l-.098.322h.07l.084-.098c.056-.075.117-.159.183-.252l.224-.281a1.86 1.86 0 0 0 .182-.252 5.34 5.34 0 0 0 .154-.252c.066-.122.108-.196.126-.224a18.24 18.24 0 0 0 .477-1.36c.047-.131.07-.205.07-.224v-.154z"/><path fill="#191829" stroke="#191829" stroke-linecap="round" stroke-linejoin="round" stroke-width="1.108" d="M143.411 183.429c-3.918-4.37-5.515-9.235-4.33-15.91 2.058-11.523 14.701-24.339 14.701-32.397s5.638-26.825 22.865-27.936c17.228-1.111 25.969 7.548 29.632 26.512 3.663 18.964 3.482 22.281 7.745 31.129 1.753 3.647 3.737 7.326 4.461 11.351 1.441 7.984-7.226 11.885-13.359 14.083-17.219 6.157-38.767 10.223-54.982-.93a37.471 37.471 0 0 1-6.733-5.902z"/><path stroke="#fff" stroke-linecap="round" stroke-miterlimit="10" stroke-width="1.108" d="M205.803 148.357c.939.434 1.921.768 2.93.996m-26.554-27.17s6.791 16.05 14.816 21.301a76.357 76.357 0 0 0 4.749 2.873m-30.043-19.227c-3.901 6.742-11.334 17.425-21.326 21.911m24.388-27.788s-.477 1.086-1.391 2.839m-16.824 25.263s-12.675 12.626-11.111 27.442m14.51-24.694s-5.868 16.058-4.016 26.248"/><path fill="#92E3A9" d="M165.479 168.154s-29.237 7.893-31.451 8.683c-2.214.791-1.893 5.853-1.893 6.956 0 1.102-6.478 34.29-6.478 34.29a43.064 43.064 0 0 0-5.852 4.428c-2.527 2.371-1.58 5.531-1.58 6.321 0 .791.156 1.103-.634 1.894-.79.79-2.527-.626-2.206 4.271.321 4.898-1.424 16.462 2.996 17.063 4.42.601 6.642.165 13.12-2.049a16.254 16.254 0 0 0 9.005-7.408v18.651h79.33s8.058-23.549 8.536-39.031c.477-15.482 2.527-38.249-.313-42.513-2.84-4.264-17.861-9.005-31.138-10.585-13.276-1.58-29.072-1.605-31.442-.971z"/><mask id="e" width="115" height="95" x="115" y="167" maskUnits="userSpaceOnUse" style="mask-type:luminance"><path fill="#fff" d="M165.479 168.154s-29.237 7.893-31.451 8.683c-2.214.791-1.893 5.853-1.893 6.956 0 1.102-6.478 34.29-6.478 34.29a43.064 43.064 0 0 0-5.852 4.428c-2.527 2.371-1.58 5.531-1.58 6.321 0 .791.156 1.103-.634 1.894-.79.79-2.527-.626-2.206 4.271.321 4.898-1.424 16.462 2.996 17.063 4.42.601 6.642.165 13.12-2.049a16.254 16.254 0 0 0 9.005-7.408v18.651h79.33s8.058-23.549 8.536-39.031c.477-15.482 2.527-38.249-.313-42.513-2.84-4.264-17.861-9.005-31.138-10.585-13.276-1.58-29.072-1.605-31.442-.971z"/></mask><g mask="url(#e)"><path fill="#000" d="M225.038 177.122c.412.485.585.897.231 1.061-1.087.519-6.19 2.165-6.807 4.33s-.362-6.585-1.548-4.025c-1.185 2.56-2.79 12.692-9.284 33.121-5.194 16.306-8.009 37.147-6.256 49.617h18.462s8.059-23.549 8.536-39.032c.477-15.482 2.527-38.249-.313-42.513a9.805 9.805 0 0 0-3.021-2.559z" opacity=".24"/><path fill="#92E3A9" stroke="#191829" stroke-linecap="round" stroke-linejoin="round" stroke-width="1.108" d="M166.582 163.722a7.14 7.14 0 0 0-2.527 3.005c-1.103 2.206-10.429 19.433-11.219 20.223-.79.79 4.264.634 6.321-.313 2.058-.946 5.844-.946 5.844-.946l3.639 2.84 11.218 4.428s5.054-3.638 7.581-5.688c2.527-2.049 3.638-2.848 3.638-2.848a35.891 35.891 0 0 1 6.322 2.848c2.527 1.581 1.58 2.371 2.527 1.581.946-.791.477-2.371-.824-4.585-1.3-2.214-5.21-14.38-10.115-18.931-4.906-4.552-16.561-6.042-22.405-1.614zm22.916 39.352 21.812.157-.477 6.165-11.219 5.687-10.116-5.531v-6.478zm-48.992-1.9 21.812.156-.477 6.165-11.219 5.688-10.116-5.531v-6.478z"/><path fill="#000" d="M140.77 248.445s-1.235-46.736-.305-52.003c.93-5.268-5.572-21.047-5.268-12.684.305 8.362 2.47 20.964 2.651 24.1.181 3.136-7.293 1.589-6.676 5.613.618 4.025 4.939 4.017 6.198 10.215 1.26 6.198-9.292 5.877-9.292 9.285 0 3.407 3.72 8.041.625 10.832-3.095 2.79-4.84-.947-4.84-.947a15.948 15.948 0 0 1 .609 9.186 50.719 50.719 0 0 0 7.054-1.992 16.254 16.254 0 0 0 9.005-7.408v6.717l.239-.914z" opacity=".24"/></g><path stroke="#191829" stroke-linecap="round" stroke-linejoin="round" stroke-width="1.108" d="M165.479 168.154s-29.237 7.893-31.451 8.683c-2.214.791-1.893 5.853-1.893 6.956 0 1.102-6.478 34.29-6.478 34.29a43.064 43.064 0 0 0-5.852 4.428c-2.527 2.371-1.58 5.531-1.58 6.321 0 .791.156 1.103-.634 1.894-.79.79-2.527-.626-2.206 4.271.321 4.898-1.424 16.462 2.996 17.063 4.42.601 6.642.165 13.12-2.049a16.254 16.254 0 0 0 9.005-7.408v18.651h79.33s8.058-23.549 8.536-39.031c.477-15.482 2.527-38.249-.313-42.513-2.84-4.264-17.861-9.005-31.138-10.585-13.276-1.58-29.072-1.605-31.442-.971z"/><path stroke="#191829" stroke-linecap="round" stroke-linejoin="round" stroke-width="1.108" d="M140.506 215.556v27.343s-1.424-17.384-5.21-21.812m-16.116 9.21s8.379 3.004 10.116 9.161-.313 10.116-.313 10.116"/><path fill="#92E3A9" stroke="#191829" stroke-linecap="round" stroke-linejoin="round" stroke-width="1.108" d="M109.154 240.659s6.116-2.782 6.585-3.293c.469-.51 5.852-.255 8.099 5.474 2.248 5.729.618 8.478-.502 9.095-1.119.618-6.988 2.33-8.609 2.33-1.622 0-8.437-11.483-5.573-13.606z"/><path fill="#fff" d="M167.528 166.573s-2.684 94.434-1.581 94.434h19.285s.157-68.836 1.416-75.314c1.259-6.478 4.272-18.018 3.795-21.178-.478-3.161-21.961-1.424-21.961-1.424a12.562 12.562 0 0 0-.954 3.482z"/><mask id="f" width="26" height="100" x="165" y="162" maskUnits="userSpaceOnUse" style="mask-type:luminance"><path fill="#fff" d="M167.528 166.57s-2.683 94.434-1.58 94.434h19.285s.156-68.835 1.416-75.313c1.259-6.478 4.271-18.018 3.794-21.178-.477-3.161-21.96-1.424-21.96-1.424a12.567 12.567 0 0 0-.955 3.481z"/></mask><g mask="url(#f)"><path fill="#92E3A9" d="M167.528 166.57s-2.683 94.434-1.58 94.434h19.285s.156-68.835 1.416-75.313c1.259-6.478 4.271-18.018 3.794-21.178-.477-3.161-21.96-1.424-21.96-1.424a12.567 12.567 0 0 0-.955 3.481z"/><path fill="#fff" d="M167.528 166.57s-2.683 94.434-1.58 94.434h19.285s.156-68.835 1.416-75.313c1.259-6.478 4.271-18.018 3.794-21.178-.477-3.161-21.96-1.424-21.96-1.424a12.567 12.567 0 0 0-.955 3.481z" opacity=".7"/></g><path stroke="#191829" stroke-linecap="round" stroke-linejoin="round" stroke-width="1.108" d="M167.528 166.573s-2.684 94.434-1.581 94.434h19.285s.157-68.836 1.416-75.314c1.259-6.478 4.272-18.018 3.795-21.178-.478-3.161-21.961-1.424-21.961-1.424a12.562 12.562 0 0 0-.954 3.482z"/><path fill="#fff" d="M186.533 186.474a36.1 36.1 0 0 1-19.548.716c-.725 28.232-1.811 73.815-1.037 73.815h19.285s.148-64.514 1.3-74.531z"/><mask id="g" width="22" height="76" x="165" y="186" maskUnits="userSpaceOnUse" style="mask-type:luminance"><path fill="#fff" d="M186.533 186.474a36.1 36.1 0 0 1-19.548.716c-.725 28.232-1.811 73.815-1.037 73.815h19.285s.148-64.514 1.3-74.531z"/></mask><g fill="#191829" mask="url(#g)"><path d="M185.273 251.409c0-2.584 0-5.506.05-8.642H165.79c0 3.161-.074 6.074-.09 8.642h19.573zm-19.178-25.105c-.058 2.963-.115 5.852-.165 8.642h19.475c0-2.823.049-5.72.082-8.642h-19.392zm.338-16.463c-.066 2.873-.132 5.762-.19 8.643h19.319c.041-2.947.082-5.852.131-8.643h-19.26zm.395-16.461c-.066 2.774-.14 5.671-.214 8.643h19.236c.074-3.235.164-6.165.263-8.643h-19.285z"/></g><path stroke="#191829" stroke-linecap="round" stroke-linejoin="round" stroke-width="1.108" d="M186.533 186.474a36.1 36.1 0 0 1-19.548.716c-.725 28.232-1.811 73.815-1.037 73.815h19.285s.148-64.514 1.3-74.531z"/><path fill="#fff" stroke="#191829" stroke-linecap="round" stroke-linejoin="round" stroke-width="1.108" d="M176.696 125.763s-2.848 9.005-15.17 17.071c0 0-.823 11.219 2.527 19.59s12.166 15.013 15.96 14.223c3.795-.79 11.219-9.326 13.746-15.326 2.527-6.001 2.535-16.75 2.535-16.75s-12.807-8.346-19.598-18.808z"/><path stroke="#191829" stroke-linecap="round" stroke-linejoin="round" stroke-width="1.108" d="M175.751 156.3s-.321 5.21.469 5.687c.791.478 2.215.313 2.371-1.424m-4.421 4.709s4.898.947 7.581-.633m-7.68-23.936s-6.634-1.77-9.482 3.169m15.862.616s4.601-4.634 11.087-.453m-25.113 6.571s3.004 2.848 7.902.823m7.088-.148s4.116 1.901 7.581-.313"/><path stroke="#191829" stroke-linecap="round" stroke-linejoin="round" stroke-width=".831" d="M169.529 158.504a6.634 6.634 0 1 0 0-13.268 6.634 6.634 0 0 0 0 13.268zm15.835.005a6.636 6.636 0 1 0-.001-13.271 6.636 6.636 0 0 0 .001 13.271zm-9.201-6.637h2.56m13.275 0h3.885m-34.766 0h1.761"/><path fill="#191829" stroke="#191829" stroke-linecap="round" stroke-linejoin="round" stroke-width="1.108" d="M172.022 152.283s1.687.074.107.659c-1.58.584-3.177.296-4.815-1.095 0 0 3.136.411 4.708.436zm11.442-.394s-1.647-.148-.19.634 3.111.716 4.939-.461c-.025.041-3.186.041-4.749-.173z"/><path fill="#fff" stroke="#191829" stroke-linecap="round" stroke-linejoin="round" stroke-width="1.108" d="m208.46 206.863-2.526-26.075s-5.375-1.103-7.268-2.371c-1.894-1.268-4.116-2.84-4.116-2.84s-1.259 1.103-2.206 0c-.946-1.103-3.951-3.292-4.428-5.062-.477-1.769 2.848-4.115 4.897-6.947 2.05-2.831 4.272-5.531 5.853-5.375 1.58.157 8.37 7.079 11.877 12.487 3.506 5.408 4.897 6.79 5.054 8.692.156 1.901 3.292 11.523 3.292 11.523l.823 16.281-11.252-.313z"/><path stroke="#191829" stroke-linecap="round" stroke-linejoin="round" stroke-width="1.108" d="M194.55 175.579s-3.112-3.07-3.112-3.992"/><path fill="#92E3A9" d="m203.086 191.774 3.005 16.75 3.292-18.651 12.799-1.416s-.115 19.911-.115 24.965c0 5.053 2.214 28.133 2.848 36.216.634 8.083-3.638 10.7-9.482 10.898-5.844.197-10.593-5.21-12.487-16.117-1.893-10.906.313-30.816-.633-34.133-.947-3.317-4.939-16.907-4.939-16.907l5.712-1.605z"/><mask id="h" width="28" height="73" x="197" y="188" maskUnits="userSpaceOnUse" style="mask-type:luminance"><path fill="#fff" d="m203.088 191.772 3.004 16.75 3.292-18.651 12.799-1.416s-.115 19.911-.115 24.964c0 5.054 2.214 28.134 2.848 36.217.634 8.083-3.638 10.7-9.482 10.898-5.844.197-10.593-5.211-12.486-16.117-1.894-10.906.312-30.817-.634-34.134-.947-3.317-4.939-16.906-4.939-16.906l5.713-1.605z"/></mask><g mask="url(#h)"><path fill="#000" d="M217.441 260.336c4.766-.708 8.009-3.63 7.458-10.7-.634-8.058-2.848-31.13-2.848-36.217 0-5.086.156-24.964.156-24.964l-2.074.23c-1.193 3.976-7.844 27.311-4.461 43.97 3.72 18.265 6.815 20.117 1.86 27.549l-.091.132z" opacity=".24"/></g><path stroke="#191829" stroke-linecap="round" stroke-linejoin="round" stroke-width="1.108" d="m203.086 191.774 3.005 16.75 3.292-18.651 12.799-1.416s-.115 19.911-.115 24.965c0 5.053 2.214 28.133 2.848 36.216.634 8.083-3.638 10.7-9.482 10.898-5.844.197-10.593-5.21-12.487-16.117-1.893-10.906.313-30.816-.633-34.133-.947-3.317-4.939-16.907-4.939-16.907l5.712-1.605z"/><path fill="#fff" stroke="#191829" stroke-linecap="round" stroke-linejoin="round" stroke-width="1.108" d="M102.61 257.048s-.378 2.543 1.926 3.119c2.305.576 7.845-.864 8.305-2.049a1.799 1.799 0 0 0-.362-1.951h-5.054s-3.811-1.177-4.815.881z"/><path fill="#191829" stroke="#191829" stroke-linecap="round" stroke-linejoin="round" stroke-width="1.108" d="m79.983 229.623 20.948 14.553 1.564-2.083-21.047-14.676-1.465 2.206z"/><path fill="#fff" stroke="#191829" stroke-linecap="round" stroke-linejoin="round" stroke-width="1.108" d="m84.848 232.998 1.63-2.074-5.03-3.507-1.465 2.206 4.865 3.375zm21.048 23.828a13.993 13.993 0 0 0 8.815-3.68c3.753-3.654 4.008-6.099-1.062-11.35-5.07-5.252-16.157.897-16.511 3.218-.354 2.321 8.758 11.812 8.758 11.812z"/><path fill="#fff" d="M117.114 247.334s-1.432 2.987-2.791 4.115c-1.358 1.128-3.514 1.432-4.79-.387-1.276-1.819-2.585-7.465-3.696-7.58-1.111-.116-6.65-1.935-8.23-4.116-1.581-2.181-1.499-3.869 1.983-2.831 3.482 1.037 12.799 2.247 12.799 2.247s2.206 1.325 3.737 5.975"/><path stroke="#191829" stroke-linecap="round" stroke-linejoin="round" stroke-width="1.108" d="M117.114 247.334s-1.432 2.987-2.791 4.115c-1.358 1.128-3.514 1.432-4.79-.387-1.276-1.819-2.585-7.465-3.696-7.58-1.111-.116-6.65-1.935-8.23-4.116-1.581-2.181-1.499-3.869 1.983-2.831 3.482 1.037 12.799 2.247 12.799 2.247s2.206 1.325 3.737 5.975"/><path fill="#fff" stroke="#191829" stroke-linecap="round" stroke-linejoin="round" stroke-width="1.108" d="M99.195 254.332c.494.609 2.116 3.367 2.881 3.556.766.189 5.466-2.798 7.276-5.078 1.811-2.28-1.564-5.441-2.527-5.886-.963-.444-7.63 7.408-7.63 7.408z"/><path fill="#fff" stroke="#191829" stroke-linecap="round" stroke-linejoin="round" stroke-width="1.108" d="M96.799 246.1s-4.116 2.47-3.136 4.165c.98 1.696 4.272 4.272 5.325 3.819 1.054-.452 8.149-3.753 8.116-5.556-.033-1.802-.148-3.951-3.778-3.654-2.212.185-4.4.596-6.527 1.226z"/><path fill="#fff" stroke="#191829" stroke-linecap="round" stroke-linejoin="round" stroke-width="1.108" d="M92.684 239.259s-2 4.066-.164 5.828c1.835 1.761 13.169 1.72 13.745-.354.576-2.074-3.671-2.519-6.79-3.861-3.12-1.341-6.355-2.576-6.79-1.613zm43.953 21.18s-.313-5.375-5.054-7.268c-4.741-1.893-7.276-1.111-17.861 1.737a101.292 101.292 0 0 1-20.388 3.16v2.371h43.303z"/><path fill="#fff" stroke="#191829" stroke-linecap="round" stroke-linejoin="round" stroke-width="1.108" d="M136.465 260.439s.312-5.375 5.053-7.268c4.741-1.893 7.268-1.111 17.862 1.737a101.264 101.264 0 0 0 20.38 3.16v2.371h-43.295z"/><path fill="#191829" stroke="#191829" stroke-linecap="round" stroke-linejoin="round" stroke-width="1.108" d="M181.52 259.492H92.23v1.737h89.29v-1.737z"/><path stroke="#191829" stroke-linecap="round" stroke-linejoin="round" stroke-width="1.108" d="M40.162 261.23h286.982"/><path fill="#fff" stroke="#191829" stroke-linecap="round" stroke-linejoin="round" stroke-width="1.108" d="M323.852 213.507h-60.844l-20.701 47.879h60.844l20.701-47.879z"/><path fill="#191829" stroke="#191829" stroke-linecap="round" stroke-linejoin="round" stroke-width="1.108" d="M326.221 213.507h-60.843l-20.701 47.879h60.843l20.701-47.879z"/><path fill="#fff" stroke="#92E3A9" stroke-linecap="round" stroke-linejoin="round" stroke-width="1.108" d="M290.318 242.644c-1.564 2.469-4.494 3.44-6.543 2.14-2.05-1.301-2.47-4.354-.889-6.832 1.58-2.477 4.494-3.432 6.585-2.14 2.09 1.292 2.411 4.362.847 6.832z"/><path fill="#fff" stroke="#191829" stroke-linecap="round" stroke-linejoin="round" stroke-width="1.108" d="M243.097 259.494h-44.406v1.737h44.406v-1.737z"/><path fill="#92E3A9" stroke="#191829" stroke-linecap="round" stroke-linejoin="round" stroke-width="1.108" d="M84.932 259.824H70.805l-2.121-23.42h18.369l-2.121 23.42z"/><path fill="#fff" stroke="#191829" stroke-linecap="round" stroke-linejoin="round" stroke-width="1.108" d="M87.02 235.557H68.71a.968.968 0 0 0-.967.968v.093c0 .534.433.968.968.968h18.31a.968.968 0 0 0 .967-.968v-.093a.968.968 0 0 0-.968-.968z"/><path stroke="#191829" stroke-linecap="round" stroke-linejoin="round" stroke-width="1.108" d="M69.579 202.862a4.516 4.516 0 0 1 1.24-1.638m3.652 33.067s4.177-.696 7.133-5.568c2.957-4.873-1.213-7.292-8.001-13.053-4.223-3.573-5.144-7.623-4.694-10.607"/><path stroke="#191829" stroke-linecap="round" stroke-linejoin="round" stroke-width="1.108" d="M83.361 233.495a7.077 7.077 0 0 0 3.116-4.255c.875-3.315-.345-7.133-5.217-10.262-4.873-3.129-7.485-3.978-9.745-6.961m8.352 22.789a8.62 8.62 0 0 0 2.228-.662"/></g><defs><filter id="a" width="345.384" height="434.924" x="42.807" y="11.362" color-interpolation-filters="sRGB" filterUnits="userSpaceOnUse"><feFlood flood-opacity="0" result="BackgroundImageFix"/><feColorMatrix in="SourceAlpha" result="hardAlpha" values="0 0 0 0 0 0 0 0 0 0 0 0 0 0 0 0 0 0 127 0"/><feOffset dy="7.979"/><feGaussianBlur stdDeviation="9.309"/><feColorMatrix values="0 0 0 0 0 0 0 0 0 0 0 0 0 0 0 0 0 0 0.1 0"/><feBlend in2="BackgroundImageFix" result="effect1_dropShadow_2401_22595"/><feColorMatrix in="SourceAlpha" result="hardAlpha" values="0 0 0 0 0 0 0 0 0 0 0 0 0 0 0 0 0 0 127 0"/><feOffset dy="32.802"/><feGaussianBlur stdDeviation="16.401"/><feColorMatrix values="0 0 0 0 0 0 0 0 0 0 0 0 0 0 0 0 0 0 0.09 0"/><feBlend in2="effect1_dropShadow_2401_22595" result="effect2_dropShadow_2401_22595"/><feColorMatrix in="SourceAlpha" result="hardAlpha" values="0 0 0 0 0 0 0 0 0 0 0 0 0 0 0 0 0 0 127 0"/><feOffset dy="74.469"/><feGaussianBlur stdDeviation="22.163"/><feColorMatrix values="0 0 0 0 0 0 0 0 0 0 0 0 0 0 0 0 0 0 0.05 0"/><feBlend in2="effect2_dropShadow_2401_22595" result="effect3_dropShadow_2401_22595"/><feColorMatrix in="SourceAlpha" result="hardAlpha" values="0 0 0 0 0 0 0 0 0 0 0 0 0 0 0 0 0 0 127 0"/><feOffset dy="132.094"/><feGaussianBlur stdDeviation="26.596"/><feColorMatrix values="0 0 0 0 0 0 0 0 0 0 0 0 0 0 0 0 0 0 0.01 0"/><feBlend in2="effect3_dropShadow_2401_22595" result="effect4_dropShadow_2401_22595"/><feBlend in="SourceGraphic" in2="effect4_dropShadow_2401_22595" result="shape"/></filter><filter id="d" width="428.384" height="456.924" x=".808" y="-10.638" color-interpolation-filters="sRGB" filterUnits="userSpaceOnUse"><feFlood flood-opacity="0" result="BackgroundImageFix"/><feColorMatrix in="SourceAlpha" result="hardAlpha" values="0 0 0 0 0 0 0 0 0 0 0 0 0 0 0 0 0 0 127 0"/><feOffset dy="7.979"/><feGaussianBlur stdDeviation="9.309"/><feColorMatrix values="0 0 0 0 0 0 0 0 0 0 0 0 0 0 0 0 0 0 0.1 0"/><feBlend in2="BackgroundImageFix" result="effect1_dropShadow_2401_22595"/><feColorMatrix in="SourceAlpha" result="hardAlpha" values="0 0 0 0 0 0 0 0 0 0 0 0 0 0 0 0 0 0 127 0"/><feOffset dy="32.802"/><feGaussianBlur stdDeviation="16.401"/><feColorMatrix values="0 0 0 0 0 0 0 0 0 0 0 0 0 0 0 0 0 0 0.09 0"/><feBlend in2="effect1_dropShadow_2401_22595" result="effect2_dropShadow_2401_22595"/><feColorMatrix in="SourceAlpha" result="hardAlpha" values="0 0 0 0 0 0 0 0 0 0 0 0 0 0 0 0 0 0 127 0"/><feOffset dy="74.469"/><feGaussianBlur stdDeviation="22.163"/><feColorMatrix values="0 0 0 0 0 0 0 0 0 0 0 0 0 0 0 0 0 0 0.05 0"/><feBlend in2="effect2_dropShadow_2401_22595" result="effect3_dropShadow_2401_22595"/><feColorMatrix in="SourceAlpha" result="hardAlpha" values="0 0 0 0 0 0 0 0 0 0 0 0 0 0 0 0 0 0 127 0"/><feOffset dy="132.094"/><feGaussianBlur stdDeviation="26.596"/><feColorMatrix values="0 0 0 0 0 0 0 0 0 0 0 0 0 0 0 0 0 0 0.01 0"/><feBlend in2="effect3_dropShadow_2401_22595" result="effect4_dropShadow_2401_22595"/><feBlend in="SourceGraphic" in2="effect4_dropShadow_2401_22595" result="shape"/></filter><linearGradient id="b" x1="381.144" x2="142.017" y1="-26.191" y2="79.659" gradientUnits="userSpaceOnUse"><stop stop-color="#fff" stop-opacity=".33"/><stop offset="1" stop-color="#fff" stop-opacity="0"/></linearGradient><clipPath id="c"><path fill="#fff" d="M54 0h322v261H54z"/></clipPath></defs></svg>